<svg id="Group_1597" data-name="Group 1597" xmlns="http://www.w3.org/2000/svg" width="236.918" height="261.354" viewBox="0 0 236.918 261.354">
  <g id="Group_1510" data-name="Group 1510" transform="translate(0 0.075)">
    <path id="Path_853" data-name="Path 853" d="M39.9,0A39.9,39.9,0,1,1,0,39.9,39.9,39.9,0,0,1,39.9,0Z" transform="translate(0 0)" fill="#2b5287"/>
    <g id="_11" data-name="11" transform="translate(4.151 9.721)">
      <g id="Group_538" data-name="Group 538" transform="translate(20.733 15.437)">
        <g id="Group_537" data-name="Group 537">
          <g id="Group_536" data-name="Group 536">
            <path id="Path_330" data-name="Path 330" d="M286.294,456.5c-.613-2.118-2.174-3.958-3.344-6.076l.056-.056c3.177-2.341,4.292-5.462,3.233-8.7-1.059-3.177-3.9-5.072-7.8-5.072H258.146v2.676h20.289a7.792,7.792,0,0,1,2.285.279,4.79,4.79,0,0,1,3.289,5.072,4.924,4.924,0,0,1-5.017,4.236c-4.236.056-8.472,0-12.708,0-.669,0-1.338.056-2.007.112v2.453h2.174c3.289,0,6.577-.112,9.81.056a7.826,7.826,0,0,1,7.8,8.249c0,3.567-3.512,7.469-8.026,7.413-5.685-.112-11.427-.056-17.112,0-2.341,0-2.4.055-2.118,2.675h1.84c6.187,0,12.374.223,18.505-.112A10.354,10.354,0,0,0,286.294,456.5Z" transform="translate(-256.692 -436.6)" fill="#f6d76a"/>
            <path id="Path_331" data-name="Path 331" d="M264.09,462.167c3.9.111,7.859,0,11.761.056,1.17,0,2.062.446,2.118,1.728.056,1.338-.78,1.784-2.007,1.728-.557,0-1.171.112-1.728.112h-17.39V468.3h5.908c4.571,0,9.085.056,13.656,0a4.341,4.341,0,0,0,.5-8.64,13.14,13.14,0,0,0-2.118-.112c-3.679,0-7.357.056-10.981-.112a4.672,4.672,0,0,1-1.393-9.03,8.254,8.254,0,0,1,2.62-.334c4.682-.056,9.364,0,14.1,0v-2.62c-5.351,0-10.59-.167-15.774.056-3.121.111-5.24,2.062-6.187,5.016A7.271,7.271,0,0,0,264.09,462.167Z" transform="translate(-256.728 -441.377)" fill="#f6d76a"/>
          </g>
        </g>
      </g>
    </g>
  </g>
  <g id="Group_1511" data-name="Group 1511" transform="translate(159.12 0.075)">
    <g id="Logo" transform="translate(0 0)">
      <g id="Layer_2" data-name="Layer 2" transform="translate(0)">
        <g id="Circular">
          <path id="Vector" d="M38.9,0A38.9,38.9,0,1,1,0,38.9,38.9,38.9,0,0,1,38.9,0Z" transform="translate(0)" fill="#3da799"/>
          <path id="Vector-2" data-name="Vector" d="M33.242,21.433l-8.709,3.191-3.126,1.145-.081.026,0-.006-.971-3.206-.083-.279-2.627-8.671L20.9,12.622l1.587,5.238a.529.529,0,0,0,1,.036,10.688,10.688,0,0,0,.723-3.879A10.5,10.5,0,0,0,13.821,3.437,10.494,10.494,0,0,0,3.437,14.016a10.612,10.612,0,0,0,5.939,9.561A1.914,1.914,0,0,1,10.447,25.3v2.31A13.985,13.985,0,0,1,0,14.016,13.919,13.919,0,0,1,13.82,0,13.921,13.921,0,0,1,27.643,14.016a14.156,14.156,0,0,1-.85,4.852.775.775,0,0,0,1,.99l4.272-1.567Z" transform="translate(25.412 9.961)" fill="#fff"/>
          <path id="Vector-3" data-name="Vector" d="M0,3.814,9.063,2.023l3.253-.643.084-.013v.005l.542,3.15.046.274,1.465,8.52-3.363.5L10.205,8.67A.54.54,0,0,0,9.218,8.5a9.681,9.681,0,0,0-1.228,3.547A10.243,10.243,0,0,0,16.9,23.437,10.242,10.242,0,0,0,28.6,14.93c.555-3.963-1.17-8.9-4.427-10.987a1.81,1.81,0,0,1-.835-1.771L23.644,0c5.754,2.268,9.234,9.236,8.369,15.409A13.589,13.589,0,0,1,16.452,26.671,13.59,13.59,0,0,1,4.58,11.568,12.817,12.817,0,0,1,6.062,7.124.757.757,0,0,0,5.2,6.054L.757,6.933Z" transform="translate(20.913 41.157)" fill="#fff"/>
          <path id="Vector-4" data-name="Vector" d="M0,.029,0,.034.1,0" transform="translate(41.985 35.73)" fill="#24e094"/>
          <path id="Vector-5" data-name="Vector" d="M7.173,18.189C3.477,18.189,0,16.438,0,12.061H2.188c0,2.8,2.261,4.182,5.058,4.182,2.14,0,4.4-.681,4.4-3.161a2.489,2.489,0,0,0-1.605-2.31C8.194,9.848,4.961,9.727,2.821,8.657A3.723,3.723,0,0,1,.535,5.034C.535,1.872,3.258,0,6.833,0c3.258,0,6.225,1.435,6.4,5.5H11.039c-.243-2.262-1.7-3.55-4.255-3.55-3.112,0-3.939,1.556-3.939,2.894A2.116,2.116,0,0,0,4.231,6.857c1.75.875,4.985,1.021,7.173,2.116a4.184,4.184,0,0,1,2.553,4.036C13.958,16.681,10.359,18.189,7.173,18.189Z" transform="translate(31.663 30.143)" fill="#535353"/>
        </g>
      </g>
    </g>
  </g>
  <g id="ambassador">
    <path id="Path_813" data-name="Path 813" d="M158.594,114.235l-5.625-47.69a44.011,44.011,0,0,0-43.958-44.067H65.478A44.011,44.011,0,0,0,21.519,66.545l-5.629,47.69Z" transform="translate(31.219 65.922)" fill="#3da799"/>
    <path id="Path_814" data-name="Path 814" d="M74.474,22.479H65.6A44.063,44.063,0,0,0,21.533,66.546L15.89,114.232h8.879l5.643-47.69A44.059,44.059,0,0,1,74.474,22.479Z" transform="translate(31.13 65.925)" fill="#caf4ff"/>
    <path id="Path_815" data-name="Path 815" d="M160.321,118.175H17.606a2.22,2.22,0,0,1-2.2-2.482L21.035,68A46.206,46.206,0,0,1,67.193,21.978H110.73a46.285,46.285,0,0,1,46.176,46.287l5.612,47.432a2.214,2.214,0,0,1-2.2,2.477ZM20.1,113.735H157.831l-5.337-45.213a41.919,41.919,0,0,0-41.76-42.1H67.2A41.846,41.846,0,0,0,25.451,68.265Z" transform="translate(29.498 64.202)" fill="#63312d"/>
    <path id="Path_816" data-name="Path 816" d="M27.086,22.479l20.937,91.357L68.96,22.479Z" transform="translate(69.561 65.925)" fill="#f8f3f3"/>
    <path id="Path_817" data-name="Path 817" d="M44.3,38.057l3.787-6.033-7.569-7.006-7.569,7.006,3.783,6.033L29.268,56.015,40.518,105.1l11.25-49.088Z" transform="translate(77.066 74.654)" fill="#f0b90b"/>
    <path id="Path_818" data-name="Path 818" d="M42.239,109.045a2.218,2.218,0,0,1-2.162-1.723L28.823,58.235a2.262,2.262,0,0,1,.111-1.35l7.028-16.9-3.174-5.066a2.229,2.229,0,0,1,.373-2.81l7.569-7.006a2.228,2.228,0,0,1,3.019,0l7.569,7.006a2.229,2.229,0,0,1,.373,2.81l-3.174,5.066,7.028,16.9a2.2,2.2,0,0,1,.111,1.35l-11.25,49.088A2.227,2.227,0,0,1,42.239,109.045ZM33.311,57.933l8.928,38.953,8.928-38.953-7.2-17.3a2.23,2.23,0,0,1,.169-2.033l2.81-4.475-4.715-4.36-4.715,4.36L40.33,38.6a2.227,2.227,0,0,1,.169,2.033Z" transform="translate(75.344 72.931)" fill="#63312d"/>
    <path id="Path_819" data-name="Path 819" d="M48.023,33.765,32.884,47.794l-5.8-25.3,1.82-.018Z" transform="translate(69.577 65.935)" fill="#f8f3f3"/>
    <path id="Path_820" data-name="Path 820" d="M40.93,22.479l20.937,91.357-27.015-37.8,3.214-18.2L23.061,47.128l7.618-23.436A44.55,44.55,0,0,1,40.93,22.479Z" transform="translate(55.75 65.925)" fill="#f8f3f3"/>
    <path id="Path_821" data-name="Path 821" d="M31.8,33.765,46.941,47.794l5.8-25.3-1.825-.018Z" transform="translate(85.765 65.935)" fill="#f8f3f3"/>
    <path id="Path_822" data-name="Path 822" d="M34.6,51.749a2.195,2.195,0,0,1-.653-.1,2.227,2.227,0,0,1-1.509-1.625l-5.8-25.3a2.219,2.219,0,0,1,2.144-2.713l1.82-.018a1.6,1.6,0,0,1,1.15.306l19.117,11.29a2.219,2.219,0,0,1,.382,3.538L36.117,51.158a2.262,2.262,0,0,1-1.514.59ZM31.833,27.5l4.076,17.789,10.14-9.394Z" transform="translate(67.859 64.201)" fill="#63312d"/>
    <path id="Path_823" data-name="Path 823" d="M48.66,51.73a2.221,2.221,0,0,1-1.509-.59L32.012,37.11a2.219,2.219,0,0,1,.382-3.538l19.117-11.29a2.24,2.24,0,0,1,1.128-.306h.022l1.82.018a2.219,2.219,0,0,1,2.144,2.713l-5.8,25.3a2.219,2.219,0,0,1-1.509,1.625,2.4,2.4,0,0,1-.657.1ZM37.215,35.876l10.14,9.394,4.076-17.789Z" transform="translate(84.045 64.219)" fill="#63312d"/>
    <path id="Path_824" data-name="Path 824" d="M52.739,22.479,31.8,113.837l27.015-37.8L55.6,57.836,70.608,47.128,62.857,23.265a64.448,64.448,0,0,0-10.118-.786Z" transform="translate(85.749 65.925)" fill="#f8f3f3"/>
    <g id="Group_1500" data-name="Group 1500" transform="translate(76.556 86.18)">
      <path id="Path_825" data-name="Path 825" d="M63.588,117.78a2.216,2.216,0,0,1-1.807-.928l-27.015-37.8a2.2,2.2,0,0,1-.377-1.674l2.966-16.822-13.865-9.9a2.222,2.222,0,0,1-.821-2.5l7.618-23.436a2.219,2.219,0,0,1,1.549-1.461A41.739,41.739,0,0,1,42.66,21.983a2.221,2.221,0,0,1,2.158,1.723l20.937,91.357a2.225,2.225,0,0,1-1.252,2.522,2.306,2.306,0,0,1-.915.2ZM38.922,77.229l20.027,28.023L40.893,26.458a44.55,44.55,0,0,0-6.77.844L27.4,47.99,41.08,57.752a2.223,2.223,0,0,1,.9,2.193Z" transform="translate(-22.561 -21.978)" fill="#63312d"/>
      <path id="Path_826" data-name="Path 826" d="M33.52,117.776a2.2,2.2,0,0,1-.91-.2,2.223,2.223,0,0,1-1.252-2.522L52.3,23.7a2.33,2.33,0,0,1,2.34-1.723,65.1,65.1,0,0,1,10.331.826,2.214,2.214,0,0,1,1.723,1.5L74.44,48.168a2.222,2.222,0,0,1-.821,2.5l-13.865,9.9L62.719,77.38a2.216,2.216,0,0,1-.377,1.674l-27.015,37.8A2.242,2.242,0,0,1,33.52,117.776Zm22.7-91.34L38.16,105.243,58.187,77.221l-3.05-17.283a2.215,2.215,0,0,1,.9-2.193l13.683-9.763L62.893,26.974c-1.412-.182-3.845-.457-6.673-.537Z" transform="translate(7.507 -21.974)" fill="#63312d"/>
      <path id="Path_827" data-name="Path 827" d="M30.949,27.455h7.978v4.44H30.949Z" transform="translate(6.292 -3.139)" fill="#63312d"/>
    </g>
    <path id="Path_828" data-name="Path 828" d="M27.5,22.475l19.117,11.29,19.112-11.29Z" transform="translate(70.971 65.939)" fill="#f9dd9d"/>
    <path id="Path_829" data-name="Path 829" d="M48.331,37.7A2.22,2.22,0,0,1,47.2,37.4L28.087,26.108a2.221,2.221,0,0,1,1.128-4.133H67.443a2.221,2.221,0,0,1,1.128,4.133L49.454,37.4A2.192,2.192,0,0,1,48.331,37.7ZM37.339,26.415l10.992,6.491,10.992-6.491Z" transform="translate(69.253 64.219)" fill="#63312d"/>
    <path id="Path_830" data-name="Path 830" d="M22.561,30.869H27V84.978h-4.44Z" transform="translate(54.053 94.769)" fill="#63312d"/>
    <path id="Path_831" data-name="Path 831" d="M41.171,30.869h4.44V84.978h-4.44Z" transform="translate(117.943 94.769)" fill="#63312d"/>
    <path id="Path_832" data-name="Path 832" d="M108.405,46.212A43.164,43.164,0,1,1,65.244,3.046,43.167,43.167,0,0,1,108.405,46.212Z" transform="translate(52.336 -0.831)" fill="#f8f3f3"/>
    <path id="Path_833" data-name="Path 833" d="M49.33,31.616,58.169,42.95h49.945a43.12,43.12,0,0,0-86,0H40.486Z" transform="translate(52.463 -0.827)" fill="#3da799"/>
    <path id="Path_834" data-name="Path 834" d="M69.526,3.278a43.87,43.87,0,0,0-4.408-.231,43.143,43.143,0,0,0-43,39.9H31A43.15,43.15,0,0,1,69.526,3.278Z" transform="translate(52.501 -0.827)" fill="#ffc8bb"/>
    <path id="Path_835" data-name="Path 835" d="M109.831,46.889H59.886a2.224,2.224,0,0,1-1.749-.852l-7.09-9.088-7.09,9.088a2.211,2.211,0,0,1-1.749.852H23.837a2.22,2.22,0,0,1-2.215-2.384,45.336,45.336,0,0,1,90.421,0,2.22,2.22,0,0,1-2.211,2.384ZM60.969,42.45h46.4a40.9,40.9,0,0,0-81.071,0H41.12l8.173-10.477a2.3,2.3,0,0,1,3.5,0Z" transform="translate(50.746 -2.547)" fill="#63312d"/>
    <path id="Path_836" data-name="Path 836" d="M66.965,93.314a45.383,45.383,0,1,1,45.381-45.381A45.437,45.437,0,0,1,66.965,93.314Zm0-86.327a40.946,40.946,0,1,0,40.942,40.946A40.993,40.993,0,0,0,66.965,6.987Z" transform="translate(50.62 -2.547)" fill="#63312d"/>
    <path id="Path_837" data-name="Path 837" d="M11.779,34.141H217.618V55.367H11.779Z" transform="translate(17.079 106.027)" fill="#d1d1d1"/>
    <path id="Path_838" data-name="Path 838" d="M219.346,59.306H13.5a2.219,2.219,0,0,1-2.216-2.22V35.861a2.219,2.219,0,0,1,2.216-2.22H219.341a2.219,2.219,0,0,1,2.216,2.22V57.086A2.212,2.212,0,0,1,219.346,59.306ZM15.711,54.867H217.125V38.081H15.711Z" transform="translate(15.359 104.307)" fill="#63312d"/>
    <path id="Path_839" data-name="Path 839" d="M11.779,38.922,38.758,60.7H190.643l26.979-21.781Z" transform="translate(17.079 122.457)" fill="#b19b4c"/>
    <path id="Path_840" data-name="Path 840" d="M192.366,64.642H40.476a2.211,2.211,0,0,1-1.392-.493L12.1,42.369A2.219,2.219,0,0,1,13.5,38.422H219.342a2.219,2.219,0,0,1,1.392,3.947l-26.98,21.781a2.19,2.19,0,0,1-1.387.493ZM41.256,60.2H191.582l21.48-17.341H19.777Z" transform="translate(15.359 120.737)" fill="#63312d"/>
    <path id="Path_841" data-name="Path 841" d="M149.548,119.856,170,43.828H17.866l20.453,76.028Z" transform="translate(37.677 139.278)" fill="#b19b4c"/>
    <path id="Path_842" data-name="Path 842" d="M151.265,123.8H40.037a2.223,2.223,0,0,1-2.144-1.643L17.444,46.125a2.221,2.221,0,0,1,2.144-2.8H171.723a2.221,2.221,0,0,1,2.144,2.8L153.41,122.153A2.22,2.22,0,0,1,151.265,123.8Zm-109.528-4.44H149.565l19.254-71.588H22.482Z" transform="translate(35.96 137.558)" fill="#63312d"/>
    <path id="Path_843" data-name="Path 843" d="M5.779,34.141H211.618V55.367H5.779Z" transform="translate(-3.558 106.027)" fill="#f8f3f3"/>
    <path id="Path_844" data-name="Path 844" d="M213.346,59.306H7.5a2.219,2.219,0,0,1-2.216-2.22V35.861A2.219,2.219,0,0,1,7.5,33.641H213.341a2.219,2.219,0,0,1,2.216,2.22V57.086A2.212,2.212,0,0,1,213.346,59.306ZM9.711,54.867H211.125V38.081H9.711Z" transform="translate(-5.278 104.307)" fill="#63312d"/>
    <path id="Path_845" data-name="Path 845" d="M5.779,38.922,32.758,60.7H184.643l26.979-21.781Z" transform="translate(-3.558 122.457)" fill="#f6d76a"/>
    <path id="Path_846" data-name="Path 846" d="M5.779,38.922,32.8,60.7h8.879L14.658,38.922Z" transform="translate(-3.558 122.457)" fill="#ffc8bb"/>
    <path id="Path_847" data-name="Path 847" d="M186.366,64.642H34.476a2.211,2.211,0,0,1-1.392-.493L6.1,42.369A2.219,2.219,0,0,1,7.5,38.422H213.342a2.219,2.219,0,0,1,1.392,3.947l-26.98,21.781a2.19,2.19,0,0,1-1.387.493ZM35.256,60.2H185.582l21.479-17.341H13.777Z" transform="translate(-5.279 120.737)" fill="#63312d"/>
    <path id="Path_848" data-name="Path 848" d="M143.548,119.856,164,43.828H11.866l20.453,76.028Z" transform="translate(17.378 139.278)" fill="#f6d76a"/>
    <path id="Path_849" data-name="Path 849" d="M41.2,119.856,20.745,43.828H11.866l20.453,76.028Z" transform="translate(17.378 139.278)" fill="#ffeecf"/>
    <path id="Path_850" data-name="Path 850" d="M145.265,123.8H34.037a2.223,2.223,0,0,1-2.144-1.643L11.444,46.125a2.221,2.221,0,0,1,2.144-2.8H165.723a2.221,2.221,0,0,1,2.144,2.8L147.41,122.153A2.22,2.22,0,0,1,145.265,123.8Zm-109.529-4.44H143.565l19.254-71.588H16.482Z" transform="translate(15.661 137.558)" fill="#63312d"/>
  </g>
</svg>
