<svg xmlns="http://www.w3.org/2000/svg" width="461.07" height="434.497" viewBox="0 0 461.07 434.497">
  <g id="Group_1440" data-name="Group 1440" transform="translate(-913.545 -361.352)">
    <path id="blob_16_" data-name="blob (16)" d="M332.258,151.014c25.624,75.731,19.828,154.731-36.605,197.772-56.433,42.769-164.115,49.307-227.564,7.083C4.334,313.372-15.8,221.841,12.57,142.841,40.634,63.842,117.2-2.9,183.7.1,250.2,2.821,306.634,75.283,332.258,151.014Z" transform="matrix(-0.259, -0.966, 0.966, -0.259, 1003.31, 795.849)" fill="#2b5287"/>
    <g id="Chemical-01" transform="translate(982.492 381.305)">
      <g id="Layer_2" data-name="Layer 2">
        <path id="Path_790" data-name="Path 790" d="M325.965,627.883s-38.559-21.2-45.087-58.822c-5.79-33.366,0-47.9-8.362-63.034a3.883,3.883,0,0,1,3.819-5.722c24.868,2.825,45.582,27.222,45.582,27.222s1.306-82.991,56.332-110.427c46.82,1.864,65.621,0,65.621,0s4.887,25.368,28.018,56.706c16.885,22.874,22.01,49.6,17.535,60.249,9.94-.912,23.553-19.632,30.8-30.726a3.883,3.883,0,0,1,7.062,1.456c4.664,25.955,11.162,97.925-52.818,124.953C402.123,629.713,325.965,627.883,325.965,627.883Z" transform="translate(-240.199 -313.483)" fill="#fec272"/>
        <path id="Path_791" data-name="Path 791" d="M363.163,653.255s-37.812-22.432-37.564-69.188c25.62,7.959,50.241,34.594,50.241,34.594s-1.655-73.479,27.528-96.813c42.3,3.776,51.692-17.118,51.692-17.118s2.616,20.146,24.752,46.009c15.919,18.608,22.388,40.307,18.409,57.71,13.924-2,38.8-23.611,38.8-23.611s-.971,51.445-32.687,64.393S363.163,653.255,363.163,653.255Z" transform="translate(-267.763 -358.584)" fill="#ff8d76" opacity="0.73"/>
        <rect id="Rectangle_44" data-name="Rectangle 44" width="83.569" height="18.404" rx="9.202" transform="translate(120.108 136.944)" fill="#e1ecff"/>
        <path id="Path_792" data-name="Path 792" d="M353.29,724.978H510.537c18.928,0,29.95-21.447,18.894-36.836L431.914,552.39,334.4,688.156C323.341,703.546,334.363,724.978,353.29,724.978Z" transform="translate(-270.023 -383.113)" fill="#e1ecff"/>
        <rect id="Rectangle_45" data-name="Rectangle 45" width="57.701" height="79.337" transform="translate(133.042 146.146)" fill="#e1ecff"/>
        <path id="Path_793" data-name="Path 793" d="M397.107,738.42H524.534a10.934,10.934,0,0,0,8.881-17.316L460.82,620l-72.6,101.084a10.934,10.934,0,0,0,8.881,17.336Z" transform="translate(-298.93 -417.91)" fill="#99adf9"/>
        <circle id="Ellipse_104" data-name="Ellipse 104" cx="8.309" cy="8.309" r="8.309" transform="translate(121.433 249.866)" fill="#413f4c"/>
        <circle id="Ellipse_105" data-name="Ellipse 105" cx="8.309" cy="8.309" r="8.309" transform="translate(185.73 249.866)" fill="#413f4c"/>
        <path id="Path_794" data-name="Path 794" d="M523.989,755.49c7.993,0,15.744,3.15,15.249,7.377s-9.775,4.145-15.249,4.145-13.434-.286-14.885-3.562S513.714,755.49,523.989,755.49Z" transform="translate(-362.099 -487.643)" fill="#fff"/>
        <path id="Path_795" data-name="Path 795" d="M461.93,762.41s3.543,3.213,9.867.878" transform="translate(-337.929 -491.205)" fill="none" stroke="#99adf9" stroke-linecap="round" stroke-miterlimit="10" stroke-width="7" opacity="0.51"/>
        <path id="Path_796" data-name="Path 796" d="M607.607,762.41s-3.543,3.213-9.867.878" transform="translate(-407.827 -491.205)" fill="none" stroke="#99adf9" stroke-linecap="round" stroke-miterlimit="10" stroke-width="7" opacity="0.51"/>
        <rect id="Rectangle_46" data-name="Rectangle 46" width="32.022" height="99.483" transform="translate(145.879 136.944)" fill="#99adf9"/>
        <path id="Path_797" data-name="Path 797" d="M431.853,353.106s-1.859-21.267-24.451-36.312c-16.739-11.163-52.585-13.919-45.495-32.085,5.538-14.176,29.435-1.306,45.495-6.343s-28.45-56.89-10.755-71.625,27.756,27.421,42.864,23.131,37.205-20.956,50.139-7.838c19.413,19.714-14.511,54.658-5,61.933s37.22-10.449,42.9,2.611c8.1,18.651-63.03,37.72-63.67,66.529Z" transform="translate(-285.979 -203.602)" fill="#99adf9"/>
        <path id="Path_798" data-name="Path 798" d="M705.855,274.178a2.456,2.456,0,0,1-3.5-2.946c1.985-5.766,5.387-13.74,10.192-18.214,9.037-8.459,24.266-4.31,21.884,7.955C732.635,270.014,717.784,267.743,705.855,274.178Z" transform="translate(-461.599 -226.748)" fill="#99adf9"/>
        <path id="Path_799" data-name="Path 799" d="M358.991,296.611a1.558,1.558,0,0,0,2.242-1.873c-1.262-3.659-3.422-8.736-6.46-11.57-5.741-5.373-15.433-2.737-13.9,5.057C341.98,293.966,351.415,292.525,358.991,296.611Z" transform="translate(-275.54 -243.1)" fill="#99adf9"/>
        <path id="Path_800" data-name="Path 800" d="M230.236,608.872A56.5,56.5,0,0,1,225.121,592c-1.878-12.682-5.63-22.286-16.758-23.9C203.266,582.359,207.5,601.8,230.236,608.872Z" transform="translate(-206.432 -391.199)" fill="#fec272"/>
        <path id="Path_801" data-name="Path 801" d="M749.641,510.635s-3.965-22.757,15.249-33.575C766.395,486.737,764.434,507.277,749.641,510.635Z" transform="translate(-485.832 -344.343)" fill="#fec272"/>
        <path id="Path_802" data-name="Path 802" d="M794,728.494s12.133-11.808,16.365-35.356,21.646-30.187,21.646-30.187a198.324,198.324,0,0,0-9.4,38.729C820.45,718.7,804.342,726.382,794,728.494Z" transform="translate(-508.836 -440.015)" fill="#fec272"/>
        <path id="Path_803" data-name="Path 803" d="M485.84,411s11.774,9.449,17.244,32.085c4.052,16.768,3.562,44.165,3.562,44.165" transform="translate(-350.235 -310.344)" fill="none" stroke="#99adf9" stroke-linecap="round" stroke-miterlimit="10" stroke-width="10" opacity="0.51"/>
        <path id="Path_804" data-name="Path 804" d="M567.548,340.76S557.1,353.437,554.07,381.8" transform="translate(-385.351 -274.193)" fill="none" stroke="#99adf9" stroke-linecap="round" stroke-miterlimit="10" stroke-width="10" opacity="0.51"/>
        <line id="Line_1" data-name="Line 1" y2="36.933" transform="translate(166.777 152.863)" fill="none" stroke="#99adf9" stroke-linecap="round" stroke-miterlimit="10" stroke-width="10" opacity="0.51"/>
      </g>
    </g>
  </g>
</svg>
