<svg width="1440" height="1024" viewBox="0 0 1440 1024" fill="none" xmlns="http://www.w3.org/2000/svg">
<g clip-path="url(#clip0)">
<rect width="1440" height="1024" fill="white"/>
<g opacity="0.1">
<g opacity="0.7">
<rect width="144.5" height="128" fill="#46555E"/>
<rect x="722.5" width="144.5" height="128" fill="#46555E"/>
<rect x="289" y="128" width="144.5" height="128" fill="#46555E"/>
<rect x="867" y="256" width="144.5" height="128" fill="#46555E"/>
<rect x="1300.5" y="384" width="144.5" height="128" fill="#46555E"/>
<rect y="512" width="144.5" height="128" fill="#46555E"/>
<rect x="578" y="640" width="144.5" height="128" fill="#46555E"/>
<rect x="578" y="768" width="144.5" height="128" fill="#46555E"/>
<rect x="144.5" y="896" width="144.5" height="128" fill="#46555E"/>
<rect x="1300.5" y="896" width="144.5" height="128" fill="#46555E"/>
</g>
<g opacity="0.6">
<rect x="867" width="144.5" height="128" fill="#46555E"/>
<rect x="1300.5" width="144.5" height="128" fill="#46555E"/>
<rect y="128" width="144.5" height="128" fill="#46555E"/>
<rect y="384" width="144.5" height="128" fill="#46555E"/>
<rect x="1156" y="640" width="144.5" height="128" fill="#46555E"/>
<rect y="768" width="144.5" height="128" fill="#46555E"/>
<rect x="1156" y="768" width="144.5" height="128" fill="#46555E"/>
<rect x="722.5" y="896" width="144.5" height="128" fill="#46555E"/>
<rect x="433.5" y="384" width="144.5" height="128" fill="#46555E"/>
</g>
<g opacity="0.5">
<rect x="144.5" y="128" width="144.5" height="128" fill="#46555E"/>
<rect y="256" width="144.5" height="128" fill="#46555E"/>
<rect x="722.5" y="256" width="144.5" height="128" fill="#46555E"/>
<rect x="1300.5" y="256" width="144.5" height="128" fill="#46555E"/>
<rect x="1156" y="384" width="144.5" height="128" fill="#46555E"/>
<rect x="433.5" y="512" width="144.5" height="128" fill="#46555E"/>
<rect x="578" y="512" width="144.5" height="128" fill="#46555E"/>
<rect x="289" y="640" width="144.5" height="128" fill="#46555E"/>
<rect x="433.5" y="640" width="144.5" height="128" fill="#46555E"/>
<rect x="1300.5" y="768" width="144.5" height="128" fill="#46555E"/>
<rect x="433.5" y="896" width="144.5" height="128" fill="#46555E"/>
<rect x="1011.5" y="896" width="144.5" height="128" fill="#46555E"/>
</g>
<g opacity="0.4">
<rect x="578" width="144.5" height="128" fill="#46555E"/>
<rect x="1011.5" width="144.5" height="128" fill="#46555E"/>
<rect x="433.5" y="256" width="144.5" height="128" fill="#46555E"/>
<rect x="144.5" y="384" width="144.5" height="128" fill="#46555E"/>
<rect x="1011.5" y="384" width="144.5" height="128" fill="#46555E"/>
<rect x="722.5" y="512" width="144.5" height="128" fill="#46555E"/>
<rect x="867" y="512" width="144.5" height="128" fill="#46555E"/>
<rect x="1300.5" y="640" width="144.5" height="128" fill="#46555E"/>
<rect x="144.5" y="768" width="144.5" height="128" fill="#46555E"/>
<rect x="722.5" y="768" width="144.5" height="128" fill="#46555E"/>
</g>
<g opacity="0.3">
<rect x="1156" width="144.5" height="128" fill="#46555E"/>
<rect x="578" y="128" width="144.5" height="128" fill="#46555E"/>
<rect x="867" y="128" width="144.5" height="128" fill="#46555E"/>
<rect x="1011.5" y="256" width="144.5" height="128" fill="#46555E"/>
<rect x="289" y="384" width="144.5" height="128" fill="#46555E"/>
<rect x="578" y="384" width="144.5" height="128" fill="#46555E"/>
<rect x="289" y="512" width="144.5" height="128" fill="#46555E"/>
<rect x="1011.5" y="512" width="144.5" height="128" fill="#46555E"/>
<rect x="144.5" y="640" width="144.5" height="128" fill="#46555E"/>
</g>
<g style="mix-blend-mode:multiply" opacity="0.2">
<rect x="289" width="144.5" height="128" fill="#46555E"/>
<rect x="433.5" y="128" width="144.5" height="128" fill="#46555E"/>
<rect x="1156" y="128" width="144.5" height="128" fill="#46555E"/>
<rect x="289" y="256" width="144.5" height="128" fill="#46555E"/>
<rect x="578" y="256" width="144.5" height="128" fill="#46555E"/>
<rect x="867" y="384" width="144.5" height="128" fill="#46555E"/>
<rect x="144.5" y="512" width="144.5" height="128" fill="#46555E"/>
<rect x="867" y="768" width="144.5" height="128" fill="#46555E"/>
</g>
<rect x="144.5" width="144.5" height="128" fill="#46555E"/>
<rect x="433.5" width="144.5" height="128" fill="#46555E"/>
<rect x="722.5" y="128" width="144.5" height="128" fill="#17C1B2"/>
<rect x="1156" y="256" width="144.5" height="128" fill="#17C1B2"/>
<rect x="722.5" y="384" width="144.5" height="128" fill="#46555E"/>
<rect x="1156" y="512" width="144.5" height="128" fill="#46555E"/>
<rect x="722.5" y="640" width="144.5" height="128" fill="#46555E"/>
<rect x="433.5" y="768" width="144.5" height="128" fill="#46555E"/>
<rect x="289" y="768" width="144.5" height="128" fill="#17C1B2"/>
<rect x="1011.5" y="768" width="144.5" height="128" fill="#46555E"/>
<rect y="896" width="144.5" height="128" fill="#46555E"/>
<rect x="289" y="896" width="144.5" height="128" fill="#46555E"/>
<rect x="578" y="896" width="144.5" height="128" fill="#46555E"/>
<rect x="1011.5" y="128" width="144.5" height="128" fill="#0B6960"/>
<rect x="1300.5" y="128" width="144.5" height="128" fill="#0B6960"/>
<rect x="144.5" y="256" width="144.5" height="128" fill="#0B6960"/>
<rect x="1300.5" y="512" width="144.5" height="128" fill="#0B6960"/>
<rect y="640" width="144.5" height="128" fill="#0B6960"/>
<rect x="867" y="640" width="144.5" height="128" fill="#0B6960"/>
<rect x="1011.5" y="640" width="144.5" height="128" fill="#0B6960"/>
<rect x="867" y="896" width="144.5" height="128" fill="#0B6960"/>
<rect x="1156" y="896" width="144.5" height="128" fill="#0B6960"/>
</g>
<g opacity="0.05">
<rect x="1302.51" y="769.806" width="364.031" height="49.6042" transform="rotate(-50.3569 1302.51 769.806)" fill="#374249"/>
<path fill-rule="evenodd" clip-rule="evenodd" d="M1490.23 313.248L1067.85 921.962L1109.48 948.282L1561.72 356.012L1490.23 313.248Z" fill="#46555E"/>
<path fill-rule="evenodd" clip-rule="evenodd" d="M1119.95 952.513L1277.21 771.951L1300.85 792.271L1145.54 970.906L1119.95 952.513Z" fill="#109B8E"/>
<path d="M1405.82 756.699L1561.65 577.194L1574.6 589.112L1418.76 768.616L1405.82 756.699Z" fill="#B5BBBF"/>
<path fill-rule="evenodd" clip-rule="evenodd" d="M1377.13 627.75L1523.91 444.16L1537.65 455.146L1390.87 638.736L1377.13 627.75Z" fill="#657B88"/>
<rect x="1391.76" y="813.634" width="235.107" height="4.44653" transform="rotate(-47.3569 1391.76 813.634)" fill="#849C9B"/>
<path d="M1059.72 906L1180.73 733.847L1178.62 732.362L1057.61 904.515L1059.72 906Z" fill="#28203D"/>
</g>
<g opacity="0.1">
<path fill-rule="evenodd" clip-rule="evenodd" d="M1360.71 -101.524C1444.63 -104.64 1514.93 -62.7296 1549.35 1.80243C1570.99 42.3756 1589.32 181.374 1522.94 259.306C1430.33 368.015 1342.18 290.833 1339.14 191.95C1334.94 55.8068 1235.34 190.708 1146.89 116.539C1076.78 57.7234 1190.26 57.2674 1209.99 -29.2803C1224.49 -92.9624 1295.48 -99.1069 1360.71 -101.524Z" fill="#109B8E"/>
<path fill-rule="evenodd" clip-rule="evenodd" d="M1296.37 -49.5381C1309.27 -34.5026 1303.24 -12.3342 1288.35 0.628819C1273.46 13.5919 1241.71 35.9984 1237.91 1.35932C1234.95 -25.6141 1264.45 -86.7356 1296.37 -49.5381Z" fill="#12B3A4"/>
<mask id="mask0" mask-type="alpha" maskUnits="userSpaceOnUse" x="1342" y="39" width="135" height="132">
<path fill-rule="evenodd" clip-rule="evenodd" d="M1371.21 154.146C1346.02 130.723 1330.31 78.0764 1353.84 53.0372C1377.37 27.9979 1431.22 40.0436 1456.41 63.4517C1481.6 86.8738 1482.94 126.159 1459.41 151.198C1435.88 176.238 1396.39 177.554 1371.21 154.146Z" fill="white"/>
</mask>
<g mask="url(#mask0)">
<path fill-rule="evenodd" clip-rule="evenodd" d="M1440.19 65.4245C1438.55 65.6778 1436.91 63.8982 1436.66 62.2652C1436.41 60.6322 1437.53 59.1036 1439.17 58.8504C1440.81 58.5971 1443.39 59.5539 1443.64 61.1869C1443.89 62.8199 1441.83 65.1713 1440.19 65.4245Z" fill="#12B3A4"/>
<path fill-rule="evenodd" clip-rule="evenodd" d="M1442.29 79.0375C1440.65 79.2907 1439.02 77.497 1438.76 75.864C1438.51 74.2451 1439.64 72.7165 1441.28 72.4633C1442.92 72.2101 1445.49 73.1668 1445.74 74.7858C1445.99 76.4187 1443.93 78.7842 1442.29 79.0375Z" fill="#12B3A4"/>
<path fill-rule="evenodd" clip-rule="evenodd" d="M1423.42 40.1677C1421.79 40.4209 1420.15 38.6273 1419.9 36.9943C1419.64 35.3613 1420.77 33.8468 1422.41 33.5935C1424.05 33.3403 1426.62 34.2831 1426.87 35.916C1427.13 37.549 1425.06 39.9145 1423.42 40.1677Z" fill="#12B3A4"/>
<path fill-rule="evenodd" clip-rule="evenodd" d="M1425.53 53.7666C1423.89 54.0198 1422.25 52.2261 1422 50.6072C1421.75 48.9742 1422.87 47.4456 1424.51 47.1924C1426.15 46.9392 1428.72 47.896 1428.98 49.529C1429.23 51.1479 1427.16 53.5134 1425.53 53.7666Z" fill="#12B3A4"/>
<path fill-rule="evenodd" clip-rule="evenodd" d="M1427.63 67.3654C1425.99 67.6186 1424.35 65.839 1424.1 64.2061C1423.85 62.5731 1424.97 61.0445 1426.61 60.7912C1428.25 60.538 1430.83 61.4948 1431.08 63.1278C1431.33 64.7608 1429.27 67.1122 1427.63 67.3654Z" fill="#12B3A4"/>
<path fill-rule="evenodd" clip-rule="evenodd" d="M1429.73 80.9783C1428.09 81.2316 1426.45 79.4379 1426.2 77.8049C1425.95 76.186 1427.07 74.6574 1428.71 74.4042C1430.35 74.1509 1432.93 75.1077 1433.18 76.7266C1433.43 78.3596 1431.37 80.7251 1429.73 80.9783Z" fill="#12B3A4"/>
<path fill-rule="evenodd" clip-rule="evenodd" d="M1431.83 94.5772C1430.19 94.8304 1428.56 93.0508 1428.3 91.4178C1428.05 89.7848 1429.18 88.2562 1430.81 88.003C1432.45 87.7498 1435.03 88.7066 1435.28 90.3396C1435.53 91.9726 1433.47 94.324 1431.83 94.5772Z" fill="#12B3A4"/>
<path fill-rule="evenodd" clip-rule="evenodd" d="M1433.93 108.19C1432.29 108.443 1430.66 106.65 1430.4 105.017C1430.15 103.384 1431.28 101.855 1432.92 101.602C1434.55 101.349 1437.13 102.305 1437.38 103.938C1437.64 105.571 1435.57 107.937 1433.93 108.19Z" fill="#12B3A4"/>
<path fill-rule="evenodd" clip-rule="evenodd" d="M1436.04 121.789C1434.4 122.042 1432.76 120.248 1432.51 118.63C1432.26 116.997 1433.38 115.468 1435.02 115.215C1436.66 114.962 1439.23 115.918 1439.49 117.551C1439.74 119.17 1437.67 121.536 1436.04 121.789Z" fill="#12B3A4"/>
<path fill-rule="evenodd" clip-rule="evenodd" d="M1438.14 135.388C1436.5 135.641 1434.86 133.861 1434.61 132.228C1434.36 130.595 1435.48 129.067 1437.12 128.814C1438.76 128.56 1441.34 129.517 1441.59 131.15C1441.84 132.783 1439.78 135.135 1438.14 135.388Z" fill="#12B3A4"/>
<path fill-rule="evenodd" clip-rule="evenodd" d="M1440.24 149.001C1438.6 149.254 1436.96 147.46 1436.71 145.827C1436.46 144.208 1437.58 142.68 1439.22 142.427C1440.86 142.173 1443.44 143.13 1443.69 144.749C1443.94 146.382 1441.88 148.747 1440.24 149.001Z" fill="#12B3A4"/>
<path fill-rule="evenodd" clip-rule="evenodd" d="M1442.34 162.6C1440.7 162.853 1439.07 161.073 1438.81 159.44C1438.56 157.807 1439.69 156.279 1441.32 156.025C1442.96 155.772 1445.54 156.729 1445.79 158.362C1446.04 159.995 1443.98 162.346 1442.34 162.6Z" fill="#12B3A4"/>
<path fill-rule="evenodd" clip-rule="evenodd" d="M1443.93 176.292C1442.29 176.545 1440.65 174.751 1440.4 173.118C1440.15 171.485 1441.27 169.957 1442.91 169.704C1444.55 169.45 1447.13 170.407 1447.38 172.04C1447.63 173.673 1445.57 176.039 1443.93 176.292Z" fill="#12B3A4"/>
<path fill-rule="evenodd" clip-rule="evenodd" d="M1412.96 55.7075C1411.32 55.9607 1409.69 54.167 1409.44 52.5481C1409.18 50.9151 1410.31 49.3865 1411.95 49.1333C1413.59 48.8801 1416.16 49.8366 1416.42 51.4696C1416.67 53.0885 1414.6 55.4543 1412.96 55.7075Z" fill="#12B3A4"/>
<path fill-rule="evenodd" clip-rule="evenodd" d="M1415.06 69.3063C1413.42 69.5595 1411.79 67.7799 1411.54 66.1469C1411.28 64.514 1412.41 62.9854 1414.05 62.7321C1415.69 62.4789 1418.26 63.4355 1418.52 65.0685C1418.77 66.7015 1416.7 69.0531 1415.06 69.3063Z" fill="#12B3A4"/>
<path fill-rule="evenodd" clip-rule="evenodd" d="M1417.17 82.9192C1415.53 83.1724 1413.89 81.3788 1413.64 79.7458C1413.39 78.1269 1414.51 76.5983 1416.15 76.345C1417.79 76.0918 1420.37 77.0484 1420.62 78.6673C1420.87 80.3003 1418.81 82.666 1417.17 82.9192Z" fill="#12B3A4"/>
<path fill-rule="evenodd" clip-rule="evenodd" d="M1419.27 96.5181C1417.63 96.7713 1415.99 94.9917 1415.74 93.3587C1415.49 91.7257 1416.61 90.1971 1418.25 89.9439C1419.89 89.6907 1422.47 90.6473 1422.72 92.2802C1422.97 93.9132 1420.91 96.2649 1419.27 96.5181Z" fill="#12B3A4"/>
<path fill-rule="evenodd" clip-rule="evenodd" d="M1421.37 110.131C1419.73 110.384 1418.09 108.591 1417.84 106.958C1417.59 105.325 1418.71 103.796 1420.35 103.543C1421.99 103.29 1424.57 104.246 1424.82 105.879C1425.08 107.512 1423.01 109.878 1421.37 110.131Z" fill="#12B3A4"/>
<path fill-rule="evenodd" clip-rule="evenodd" d="M1423.47 123.73C1421.83 123.983 1420.2 122.189 1419.95 120.57C1419.69 118.937 1420.82 117.409 1422.46 117.156C1424.1 116.902 1426.67 117.859 1426.93 119.492C1427.18 121.111 1425.11 123.477 1423.47 123.73Z" fill="#12B3A4"/>
<path fill-rule="evenodd" clip-rule="evenodd" d="M1425.57 137.329C1423.93 137.582 1422.3 135.802 1422.05 134.169C1421.79 132.536 1422.92 131.008 1424.56 130.754C1426.2 130.501 1428.77 131.458 1429.03 133.091C1429.28 134.724 1427.21 137.075 1425.57 137.329Z" fill="#12B3A4"/>
<path fill-rule="evenodd" clip-rule="evenodd" d="M1427.68 150.942C1426.04 151.195 1424.4 149.401 1424.15 147.768C1423.9 146.149 1425.02 144.621 1426.66 144.367C1428.3 144.114 1430.88 145.071 1431.13 146.69C1431.38 148.323 1429.32 150.688 1427.68 150.942Z" fill="#12B3A4"/>
<path fill-rule="evenodd" clip-rule="evenodd" d="M1429.78 164.54C1428.14 164.794 1426.5 163.014 1426.25 161.381C1426 159.748 1427.12 158.219 1428.76 157.966C1430.4 157.713 1432.98 158.67 1433.23 160.303C1433.48 161.936 1431.42 164.287 1429.78 164.54Z" fill="#12B3A4"/>
<path fill-rule="evenodd" clip-rule="evenodd" d="M1400.4 57.6484C1398.76 57.9016 1397.12 56.1079 1396.87 54.489C1396.62 52.856 1397.75 51.3274 1399.39 51.0742C1401.02 50.821 1403.6 51.7775 1403.85 53.4105C1404.1 55.0294 1402.04 57.3951 1400.4 57.6484Z" fill="#12B3A4"/>
<path fill-rule="evenodd" clip-rule="evenodd" d="M1402.5 71.2472C1400.86 71.5004 1399.23 69.7208 1398.98 68.0878C1398.72 66.4548 1399.85 64.9262 1401.49 64.673C1403.13 64.4198 1405.7 65.3764 1405.96 67.0094C1406.21 68.6424 1404.14 70.994 1402.5 71.2472Z" fill="#12B3A4"/>
<path fill-rule="evenodd" clip-rule="evenodd" d="M1404.6 84.8601C1402.97 85.1133 1401.33 83.3197 1401.08 81.6867C1400.83 80.0678 1401.95 78.5392 1403.59 78.2859C1405.23 78.0327 1407.81 78.9893 1408.06 80.6082C1408.31 82.2412 1406.24 84.6069 1404.6 84.8601Z" fill="#12B3A4"/>
<path fill-rule="evenodd" clip-rule="evenodd" d="M1406.71 98.459C1405.07 98.7122 1403.43 96.9326 1403.18 95.2996C1402.93 93.6666 1404.05 92.138 1405.69 91.8848C1407.33 91.6316 1409.91 92.5881 1410.16 94.2211C1410.41 95.8541 1408.34 98.2057 1406.71 98.459Z" fill="#12B3A4"/>
<path fill-rule="evenodd" clip-rule="evenodd" d="M1408.81 112.072C1407.17 112.325 1405.53 110.531 1405.28 108.898C1405.03 107.265 1406.15 105.737 1407.79 105.484C1409.43 105.23 1412.01 106.187 1412.26 107.82C1412.51 109.453 1410.45 111.819 1408.81 112.072Z" fill="#12B3A4"/>
<path fill-rule="evenodd" clip-rule="evenodd" d="M1410.91 125.671C1409.27 125.924 1407.63 124.13 1407.38 122.511C1407.13 120.878 1408.26 119.35 1409.89 119.097C1411.53 118.843 1414.11 119.8 1414.36 121.433C1414.61 123.052 1412.55 125.417 1410.91 125.671Z" fill="#12B3A4"/>
<path fill-rule="evenodd" clip-rule="evenodd" d="M1413.01 139.27C1411.37 139.523 1409.74 137.743 1409.48 136.11C1409.23 134.477 1410.36 132.949 1412 132.695C1413.63 132.442 1416.21 133.399 1416.47 135.032C1416.72 136.665 1414.65 139.016 1413.01 139.27Z" fill="#12B3A4"/>
<path fill-rule="evenodd" clip-rule="evenodd" d="M1415.11 152.882C1413.48 153.136 1411.84 151.342 1411.59 149.709C1411.34 148.09 1412.46 146.562 1414.1 146.308C1415.74 146.055 1418.32 147.012 1418.57 148.631C1418.82 150.264 1416.75 152.629 1415.11 152.882Z" fill="#12B3A4"/>
<path fill-rule="evenodd" clip-rule="evenodd" d="M1417.22 166.481C1415.58 166.735 1413.94 164.955 1413.69 163.322C1413.44 161.689 1414.56 160.16 1416.2 159.907C1417.84 159.654 1420.42 160.61 1420.67 162.243C1420.92 163.876 1418.85 166.228 1417.22 166.481Z" fill="#12B3A4"/>
<path fill-rule="evenodd" clip-rule="evenodd" d="M1385.74 45.9904C1384.1 46.2436 1382.46 44.4499 1382.21 42.817C1381.96 41.184 1383.08 39.6694 1384.72 39.4162C1386.36 39.163 1388.94 40.1055 1389.19 41.7385C1389.44 43.3715 1387.38 45.7372 1385.74 45.9904Z" fill="#12B3A4"/>
<path fill-rule="evenodd" clip-rule="evenodd" d="M1387.84 59.5892C1386.2 59.8425 1384.56 58.0488 1384.31 56.4299C1384.06 54.7969 1385.18 53.2683 1386.82 53.0151C1388.46 52.7618 1391.04 53.7184 1391.29 55.3514C1391.54 56.9703 1389.48 59.336 1387.84 59.5892Z" fill="#12B3A4"/>
<path fill-rule="evenodd" clip-rule="evenodd" d="M1389.94 73.1881C1388.3 73.4413 1386.66 71.6617 1386.41 70.0287C1386.16 68.3957 1387.28 66.8671 1388.92 66.6139C1390.56 66.3607 1393.14 67.3173 1393.39 68.9503C1393.65 70.5832 1391.58 72.9349 1389.94 73.1881Z" fill="#12B3A4"/>
<path fill-rule="evenodd" clip-rule="evenodd" d="M1392.04 86.801C1390.4 87.0542 1388.77 85.2605 1388.51 83.6276C1388.26 82.0087 1389.39 80.48 1391.03 80.2268C1392.67 79.9736 1395.24 80.9302 1395.49 82.5491C1395.75 84.1821 1393.68 86.5478 1392.04 86.801Z" fill="#12B3A4"/>
<path fill-rule="evenodd" clip-rule="evenodd" d="M1394.14 100.4C1392.51 100.653 1390.87 98.8735 1390.62 97.2405C1390.36 95.6075 1391.49 94.0789 1393.13 93.8257C1394.77 93.5725 1397.35 94.529 1397.6 96.162C1397.85 97.795 1395.78 100.147 1394.14 100.4Z" fill="#12B3A4"/>
<path fill-rule="evenodd" clip-rule="evenodd" d="M1396.25 114.013C1394.61 114.266 1392.97 112.472 1392.72 110.839C1392.47 109.206 1393.59 107.678 1395.23 107.425C1396.87 107.171 1399.45 108.128 1399.7 109.761C1399.95 111.394 1397.89 113.76 1396.25 114.013Z" fill="#12B3A4"/>
<path fill-rule="evenodd" clip-rule="evenodd" d="M1398.35 127.612C1396.71 127.865 1395.07 126.071 1394.82 124.452C1394.57 122.819 1395.69 121.291 1397.33 121.037C1398.97 120.784 1401.55 121.741 1401.8 123.374C1402.05 124.993 1399.99 127.358 1398.35 127.612Z" fill="#12B3A4"/>
<path fill-rule="evenodd" clip-rule="evenodd" d="M1400.45 141.21C1398.81 141.464 1397.17 139.684 1396.92 138.051C1396.67 136.418 1397.79 134.889 1399.43 134.636C1401.07 134.383 1403.65 135.34 1403.9 136.973C1404.15 138.606 1402.09 140.957 1400.45 141.21Z" fill="#12B3A4"/>
<path fill-rule="evenodd" clip-rule="evenodd" d="M1402.55 154.823C1400.91 155.077 1399.28 153.283 1399.02 151.65C1398.77 150.031 1399.9 148.502 1401.54 148.249C1403.18 147.996 1405.75 148.953 1406 150.571C1406.26 152.204 1404.19 154.57 1402.55 154.823Z" fill="#12B3A4"/>
<path fill-rule="evenodd" clip-rule="evenodd" d="M1404.65 168.422C1403.01 168.675 1401.38 166.896 1401.13 165.263C1400.87 163.63 1402 162.101 1403.64 161.848C1405.28 161.595 1407.85 162.551 1408.11 164.184C1408.36 165.817 1406.29 168.169 1404.65 168.422Z" fill="#12B3A4"/>
<path fill-rule="evenodd" clip-rule="evenodd" d="M1375.28 61.5301C1373.64 61.7833 1372 59.9897 1371.75 58.3708C1371.5 56.7378 1372.62 55.2092 1374.26 54.9559C1375.9 54.7027 1378.48 55.6593 1378.73 57.2923C1378.98 58.9112 1376.92 61.2769 1375.28 61.5301Z" fill="#12B3A4"/>
<path fill-rule="evenodd" clip-rule="evenodd" d="M1377.38 75.129C1375.74 75.3822 1374.1 73.6026 1373.85 71.9696C1373.6 70.3366 1374.72 68.808 1376.36 68.5548C1378 68.3016 1380.58 69.2582 1380.83 70.8911C1381.08 72.5241 1379.02 74.8758 1377.38 75.129Z" fill="#12B3A4"/>
<path fill-rule="evenodd" clip-rule="evenodd" d="M1379.48 88.7419C1377.84 88.9951 1376.2 87.2014 1375.95 85.5684C1375.7 83.9495 1376.83 82.4209 1378.46 82.1677C1380.1 81.9145 1382.68 82.8711 1382.93 84.49C1383.18 86.123 1381.12 88.4887 1379.48 88.7419Z" fill="#12B3A4"/>
<path fill-rule="evenodd" clip-rule="evenodd" d="M1381.58 102.341C1379.94 102.594 1378.31 100.814 1378.05 99.1814C1377.8 97.5484 1378.93 96.0198 1380.57 95.7666C1382.2 95.5133 1384.78 96.4699 1385.03 98.1029C1385.29 99.7359 1383.22 102.088 1381.58 102.341Z" fill="#12B3A4"/>
<path fill-rule="evenodd" clip-rule="evenodd" d="M1383.68 115.954C1382.05 116.207 1380.41 114.413 1380.16 112.78C1379.9 111.147 1381.03 109.619 1382.67 109.365C1384.31 109.112 1386.88 110.069 1387.14 111.702C1387.39 113.335 1385.32 115.7 1383.68 115.954Z" fill="#12B3A4"/>
<path fill-rule="evenodd" clip-rule="evenodd" d="M1385.79 129.552C1384.15 129.806 1382.51 128.012 1382.26 126.393C1382.01 124.76 1383.13 123.232 1384.77 122.978C1386.41 122.725 1388.99 123.682 1389.24 125.315C1389.49 126.934 1387.42 129.299 1385.79 129.552Z" fill="#12B3A4"/>
<path fill-rule="evenodd" clip-rule="evenodd" d="M1387.89 143.151C1386.25 143.405 1384.61 141.625 1384.36 139.992C1384.11 138.359 1385.23 136.83 1386.87 136.577C1388.51 136.324 1391.09 137.281 1391.34 138.913C1391.59 140.546 1389.53 142.898 1387.89 143.151Z" fill="#12B3A4"/>
<path fill-rule="evenodd" clip-rule="evenodd" d="M1389.99 156.764C1388.35 157.017 1386.71 155.224 1386.46 153.591C1386.21 151.972 1387.34 150.443 1388.97 150.19C1390.61 149.937 1393.19 150.893 1393.44 152.512C1393.69 154.145 1391.63 156.511 1389.99 156.764Z" fill="#12B3A4"/>
<path fill-rule="evenodd" clip-rule="evenodd" d="M1362.72 63.4708C1361.08 63.724 1359.44 61.9303 1359.19 60.3114C1358.94 58.6785 1360.06 57.1498 1361.7 56.8966C1363.34 56.6434 1365.92 57.6 1366.17 59.233C1366.42 60.8519 1364.35 63.2176 1362.72 63.4708Z" fill="#12B3A4"/>
<path fill-rule="evenodd" clip-rule="evenodd" d="M1364.82 77.0697C1363.18 77.3229 1361.54 75.5433 1361.29 73.9103C1361.04 72.2773 1362.16 70.7487 1363.8 70.4955C1365.44 70.2423 1368.02 71.1988 1368.27 72.8318C1368.52 74.4648 1366.46 76.8164 1364.82 77.0697Z" fill="#12B3A4"/>
<path fill-rule="evenodd" clip-rule="evenodd" d="M1366.92 90.6826C1365.28 90.9358 1363.64 89.1421 1363.39 87.5091C1363.14 85.8902 1364.27 84.3616 1365.9 84.1084C1367.54 83.8552 1370.12 84.8117 1370.37 86.4307C1370.62 88.0636 1368.56 90.4294 1366.92 90.6826Z" fill="#12B3A4"/>
<path fill-rule="evenodd" clip-rule="evenodd" d="M1369.02 104.281C1367.38 104.535 1365.75 102.755 1365.49 101.122C1365.24 99.489 1366.37 97.9604 1368.01 97.7072C1369.64 97.454 1372.22 98.4106 1372.47 100.044C1372.73 101.677 1370.66 104.028 1369.02 104.281Z" fill="#12B3A4"/>
<path fill-rule="evenodd" clip-rule="evenodd" d="M1371.12 117.894C1369.49 118.148 1367.85 116.354 1367.6 114.721C1367.34 113.088 1368.47 111.559 1370.11 111.306C1371.75 111.053 1374.32 112.009 1374.58 113.642C1374.83 115.275 1372.76 117.641 1371.12 117.894Z" fill="#12B3A4"/>
<path fill-rule="evenodd" clip-rule="evenodd" d="M1373.23 131.493C1371.59 131.746 1369.95 129.953 1369.7 128.334C1369.45 126.701 1370.57 125.172 1372.21 124.919C1373.85 124.666 1376.43 125.622 1376.68 127.255C1376.93 128.874 1374.86 131.24 1373.23 131.493Z" fill="#12B3A4"/>
<path fill-rule="evenodd" clip-rule="evenodd" d="M1375.33 145.092C1373.69 145.345 1372.05 143.566 1371.8 141.933C1371.55 140.3 1372.67 138.771 1374.31 138.518C1375.95 138.265 1378.53 139.221 1378.78 140.854C1379.03 142.487 1376.97 144.839 1375.33 145.092Z" fill="#12B3A4"/>
<path fill-rule="evenodd" clip-rule="evenodd" d="M1348.05 51.8128C1346.41 52.0661 1344.78 50.2722 1344.52 48.6392C1344.27 47.0062 1345.4 45.4919 1347.04 45.2387C1348.68 44.9854 1351.25 45.9279 1351.5 47.5609C1351.76 49.1939 1349.69 51.5596 1348.05 51.8128Z" fill="#12B3A4"/>
<path fill-rule="evenodd" clip-rule="evenodd" d="M1352.25 79.0105C1350.62 79.2638 1348.98 77.4839 1348.73 75.851C1348.48 74.218 1349.6 72.6896 1351.24 72.4364C1352.88 72.1831 1355.46 73.1397 1355.71 74.7727C1355.96 76.4057 1353.89 78.7573 1352.25 79.0105Z" fill="#12B3A4"/>
<path fill-rule="evenodd" clip-rule="evenodd" d="M1354.36 92.6235C1352.72 92.8767 1351.08 91.0828 1350.83 89.4498C1350.58 87.8309 1351.7 86.3025 1353.34 86.0493C1354.98 85.7961 1357.56 86.7526 1357.81 88.3715C1358.06 90.0045 1356 92.3702 1354.36 92.6235Z" fill="#12B3A4"/>
<path fill-rule="evenodd" clip-rule="evenodd" d="M1356.46 106.222C1354.82 106.476 1353.19 104.696 1352.93 103.063C1352.68 101.43 1353.8 99.9013 1355.44 99.6481C1357.08 99.3949 1359.66 100.351 1359.91 101.984C1360.16 103.617 1358.1 105.969 1356.46 106.222Z" fill="#12B3A4"/>
<path fill-rule="evenodd" clip-rule="evenodd" d="M1358.56 119.835C1356.92 120.088 1355.29 118.295 1355.03 116.662C1354.78 115.029 1355.9 113.5 1357.54 113.247C1359.18 112.994 1361.76 113.95 1362.01 115.583C1362.27 117.216 1360.2 119.582 1358.56 119.835Z" fill="#12B3A4"/>
<path fill-rule="evenodd" clip-rule="evenodd" d="M1360.66 133.434C1359.02 133.687 1357.39 131.893 1357.14 130.274C1356.89 128.641 1358.01 127.113 1359.65 126.86C1361.29 126.607 1363.86 127.563 1364.12 129.196C1364.37 130.815 1362.3 133.181 1360.66 133.434Z" fill="#12B3A4"/>
<path fill-rule="evenodd" clip-rule="evenodd" d="M1366.97 174.245C1365.33 174.498 1363.7 172.718 1363.44 171.085C1363.19 169.452 1364.31 167.924 1365.95 167.67C1367.59 167.417 1370.17 168.374 1370.42 170.007C1370.67 171.64 1368.61 173.991 1366.97 174.245Z" fill="#12B3A4"/>
<path fill-rule="evenodd" clip-rule="evenodd" d="M1339.69 80.9514C1338.05 81.2046 1336.42 79.4248 1336.17 77.7918C1335.91 76.1589 1337.04 74.6305 1338.68 74.3772C1340.32 74.124 1342.89 75.0806 1343.15 76.7136C1343.4 78.3466 1341.33 80.6982 1339.69 80.9514Z" fill="#12B3A4"/>
<path fill-rule="evenodd" clip-rule="evenodd" d="M1348.1 135.375C1346.46 135.628 1344.83 133.834 1344.58 132.215C1344.32 130.582 1345.45 129.054 1347.08 128.801C1348.72 128.548 1351.3 129.504 1351.55 131.137C1351.8 132.756 1349.74 135.122 1348.1 135.375Z" fill="#12B3A4"/>
<path fill-rule="evenodd" clip-rule="evenodd" d="M1352.3 162.587C1350.67 162.84 1349.03 161.046 1348.78 159.413C1348.53 157.794 1349.65 156.266 1351.29 156.013C1352.93 155.759 1355.51 156.716 1355.76 158.335C1356.01 159.968 1353.94 162.333 1352.3 162.587Z" fill="#12B3A4"/>
<path fill-rule="evenodd" clip-rule="evenodd" d="M1354.41 176.186C1352.77 176.439 1351.13 174.659 1350.88 173.026C1350.63 171.393 1351.75 169.865 1353.39 169.611C1355.03 169.358 1357.61 170.315 1357.86 171.948C1358.11 173.581 1356.04 175.932 1354.41 176.186Z" fill="#12B3A4"/>
<path fill-rule="evenodd" clip-rule="evenodd" d="M1339.74 164.528C1338.1 164.781 1336.47 162.987 1336.21 161.354C1335.96 159.735 1337.09 158.207 1338.73 157.953C1340.37 157.7 1342.94 158.657 1343.19 160.276C1343.45 161.909 1341.38 164.274 1339.74 164.528Z" fill="#12B3A4"/>
<path fill-rule="evenodd" clip-rule="evenodd" d="M1380.44 172.163C1378.8 172.416 1377.17 170.637 1376.91 169.004C1376.66 167.371 1377.79 165.842 1379.42 165.589C1381.06 165.336 1383.64 166.293 1383.89 167.926C1384.14 169.559 1382.08 171.91 1380.44 172.163Z" fill="#12B3A4"/>
<path fill-rule="evenodd" clip-rule="evenodd" d="M1365.78 160.505C1364.14 160.758 1362.5 158.965 1362.25 157.332C1362 155.713 1363.12 154.184 1364.76 153.931C1366.4 153.678 1368.98 154.634 1369.23 156.253C1369.48 157.886 1367.42 160.252 1365.78 160.505Z" fill="#12B3A4"/>
<path fill-rule="evenodd" clip-rule="evenodd" d="M1351.11 148.833C1349.47 149.086 1347.84 147.307 1347.59 145.674C1347.33 144.041 1348.46 142.512 1350.1 142.259C1351.74 142.006 1354.31 142.962 1354.57 144.595C1354.82 146.228 1352.75 148.58 1351.11 148.833Z" fill="#12B3A4"/>
</g>
</g>
<path fill-rule="evenodd" clip-rule="evenodd" d="M-413.519 1188.93C-600.757 1033 -661.833 786.209 -597.049 550.558C-556.325 402.391 -296.726 3.91759 13.7435 -69.6166C446.855 -172.164 461.302 134.895 255.124 398.827C-28.7458 762.212 484.879 671.625 515.594 1038.05C539.896 1328.57 294.78 1107.89 66.1515 1295.12C-102.06 1432.9 -268.001 1310.14 -413.519 1188.93Z" fill="#F0F2F2"/>
<path fill-rule="evenodd" clip-rule="evenodd" d="M744 63C881.519 63 993 -48.4811 993 -186C993 -323.519 881.519 -435 744 -435C606.481 -435 495 -323.519 495 -186C495 -48.4811 606.481 63 744 63Z" fill="#11A597" fill-opacity="0.4"/>
<path fill-rule="evenodd" clip-rule="evenodd" d="M108.903 548.513C118.617 554.35 128.16 557.17 132.64 556.018C143.874 553.132 144.907 512.163 136.215 496.012C127.523 479.862 82.8375 472.822 80.5852 504.822C79.8035 515.928 84.4815 525.84 91.3934 533.928L79 591.512H115L108.903 548.513Z" fill="#B28B67"/>
<path fill-rule="evenodd" clip-rule="evenodd" d="M110.703 508.356C113.817 503.734 116.806 500.209 120.695 498.161C136.522 498.411 138.375 495.582 138.375 486.049C135.818 484.226 126.799 481.155 116.698 480.292C111.545 478.822 105.441 479.098 99.561 481.55C92.302 483.603 86.1556 488.025 83.4407 496.303C73.6181 513.201 81.0735 530.791 91.1205 536.8C93.7949 533.642 96.1287 530.581 98.2112 527.651C96.5384 526.021 95.4999 523.748 95.4999 521.232C95.4999 516.277 99.5294 512.261 104.5 512.261C104.865 512.261 105.226 512.282 105.58 512.324C105.803 518.52 106.724 539.479 109.142 546.759C111.992 555.343 128.625 557.45 134.427 557.45C139.437 557.45 139.267 552.72 139.144 549.33C139.127 548.842 139.11 548.382 139.11 547.967C139.11 547.101 137.98 547.104 136.704 547.106C135.046 547.109 133.141 547.113 133.141 545.217C133.141 543.15 136.006 541.565 138.57 540.147C140.169 539.262 141.651 538.441 142.247 537.61C144.128 534.986 144.761 531.447 141.924 531.447C140.374 531.447 138.246 532.338 135.687 533.41C131.823 535.029 126.974 537.06 121.639 537.06C112.825 537.06 110.729 508.71 110.703 508.356Z" fill="#191847"/>
<path fill-rule="evenodd" clip-rule="evenodd" d="M67 715.622L121.382 905.865L161.06 1046.08H190L147.836 715.622H67Z" fill="#191847"/>
<path fill-rule="evenodd" clip-rule="evenodd" d="M52.4564 715.622C51.1986 813.676 46.9093 867.157 45.5886 876.065C44.2679 884.974 24.2982 941.647 -14.3206 1046.08H15.6589C64.8235 945.894 92.2684 889.221 97.9937 876.065C103.719 862.909 121.388 809.428 148 715.622H52.4564Z" fill="#2F3676"/>
<path fill-rule="evenodd" clip-rule="evenodd" d="M-49.4535 769.877C-43.8595 761.684 -11.4994 674.555 -11.4994 674.555L15.0683 678.401C15.0683 678.401 -27.7088 770.922 -30.7983 776.262C-34.8117 783.199 -31.2618 794.591 -28.8546 802.317C-28.4822 803.512 -28.1372 804.619 -27.8517 805.609C-32.9082 807.064 -34.8318 804.179 -36.8598 801.137C-39.1504 797.702 -41.5741 794.067 -48.7955 796.261C-51.5854 797.108 -54.2659 798.197 -56.8847 799.261C-65.9307 802.935 -74.2408 806.31 -83.7854 798.417C-85.2986 797.166 -86.5733 793.075 -81.7637 790.691C-69.7813 784.751 -52.1883 773.883 -49.4535 769.877ZM238.818 729.381L193.538 691.114L181.163 716.38L227.058 739.213C239.328 755.798 246.345 762.845 248.11 760.353C249.598 758.252 248.699 756.125 247.871 754.166C247.227 752.64 246.625 751.215 247.228 749.984C248.605 747.173 257.563 748.104 266.026 749.349C274.489 750.595 272.274 746.647 270.353 744.641C262.031 738.852 251.519 733.766 238.818 729.381Z" fill="#B28B67"/>
<path fill-rule="evenodd" clip-rule="evenodd" d="M99.5424 566.588L116.005 561.161C138.336 616.772 171.641 670.578 227.286 716.026L213.525 739.692C164.621 710.974 118.328 688.666 99.5424 645.574C93.2376 631.111 99.028 583.881 99.5424 566.588Z" fill="#12B3A4"/>
<path fill-rule="evenodd" clip-rule="evenodd" d="M43 723.099C43 723.099 113.736 730.575 154.354 723.099C157.709 722.481 158.238 716.882 156.683 713.081C132.455 653.902 115.84 602.265 115.84 561.161C109.172 564.512 92.5 562.165 92.5 562.165C62.6293 604.525 48.8988 653.127 43 723.099Z" fill="#323337"/>
<path fill-rule="evenodd" clip-rule="evenodd" d="M83.9398 558.615C84.7108 558.097 85.118 557.839 85.118 557.839L85.0741 558.615H97.5226C98.1481 562.282 99.0644 575.875 100.4 595.696C105.256 667.72 115.654 821.978 137.786 881.012H-14.922C-11.7 813.896 13.1225 733.636 38.8363 665.485C19.8617 684.304 -2.29807 715.851 -20.2072 768.365L-48.811 761.046C-19.6611 635.83 65.7427 571.253 82.3144 559.727C82.4762 559.355 82.6372 558.984 82.7974 558.615H83.9398Z" fill="#12B3A4"/>
<g opacity="0.15" clip-path="url(#clip1)">
<path opacity="0.1" d="M767.742 691.629C782.334 667.965 812.482 654.983 841.326 647.883C931.936 625.586 1025.43 644.562 1109.75 672.448C1140.27 682.538 1170.81 694.122 1194.47 713.526C1242.66 753.008 1253.26 824.521 1219.1 879.166C1207.47 897.758 1191.53 914.136 1174.71 929.42C1144.82 956.635 1111.18 981.364 1072.71 997.068C1045.27 1008.25 1016 1014.6 986.768 1019.2C905.091 1032.05 821.007 1031.57 744.389 1010.65C710.767 1001.42 677.503 987.485 657.275 962.408C637.047 937.332 633.678 898.889 657.534 873.319C667.4 862.744 680.756 855.301 693.865 848.148C713.168 837.612 732.816 827.039 748.757 812.589C765.219 797.671 782.652 773.134 772.77 753.984C762.178 733.429 753.176 715.285 767.742 691.629Z" fill="#12B3A4"/>
<path opacity="0.9" d="M1005.5 885.779L966.568 755.733L984.276 750.431L972.653 711.61L845.767 749.599L857.39 788.421L875.098 783.119L914.034 913.165C892.36 929.774 876.248 952.582 867.837 978.56C859.426 1004.54 859.113 1032.46 866.939 1058.62C888.259 1129.83 963.269 1170.27 1034.48 1148.95C1105.68 1127.63 1146.12 1052.63 1124.8 981.418C1116.96 955.258 1101.36 932.101 1080.05 915.019C1058.74 897.938 1032.74 887.74 1005.5 885.779Z" fill="#498080"/>
<path opacity="0.1" d="M966.448 755.331L874.951 782.725L875.475 784.476L966.972 757.082L966.448 755.331Z" fill="black"/>
<path d="M922.699 1038.16C922.699 1038.16 999.935 1013.55 1032.94 982.495C1065.94 951.441 1093.32 962.146 1094.77 974.56C1096.21 986.974 1091.97 1013.16 1048.45 1029.24C1004.92 1045.33 922.699 1038.16 922.699 1038.16Z" fill="#12B3A4"/>
<path opacity="0.1" d="M922.699 1038.16C922.699 1038.16 999.935 1013.55 1032.94 982.495C1065.94 951.441 1093.32 962.146 1094.77 974.56C1096.21 986.974 1091.97 1013.16 1048.45 1029.24C1004.92 1045.33 922.699 1038.16 922.699 1038.16Z" fill="black"/>
<path d="M885.717 1035.65C885.717 1035.65 911.873 1153.2 1021.3 1122.7C1130.72 1092.21 1094.77 974.544 1094.77 974.544C1094.77 974.544 1067.66 1030.24 961.882 1022.63C961.89 1022.66 908.731 1024.22 885.717 1035.65Z" fill="#12B3A4"/>
<path opacity="0.1" d="M1094.54 975.066C1100.3 1002.22 1111.05 1089.42 1019.05 1115.06C928.874 1140.21 895.248 1064.86 886.195 1037.52C890.129 1052.47 920.082 1150.9 1021.32 1122.69C1130.76 1092.15 1094.79 974.531 1094.79 974.531C1094.79 974.531 1094.7 974.742 1094.54 975.066Z" fill="black"/>
<path opacity="0.3" d="M976.247 969.828C984.044 967.493 988.473 959.279 986.138 951.482C983.804 943.684 975.59 939.256 967.792 941.59C959.995 943.925 955.566 952.139 957.901 959.936C960.235 967.734 968.449 972.162 976.247 969.828Z" fill="#12B3A4"/>
<path opacity="0.3" d="M965.789 905.551C970.615 904.106 973.356 899.022 971.911 894.196C970.466 889.37 965.383 886.629 960.557 888.074C955.731 889.519 952.99 894.603 954.435 899.429C955.88 904.255 960.963 906.996 965.789 905.551Z" fill="#12B3A4"/>
<path opacity="0.3" d="M931.19 860.955C936.016 859.51 938.757 854.426 937.312 849.6C935.867 844.774 930.784 842.033 925.958 843.478C921.131 844.923 918.391 850.007 919.835 854.833C921.28 859.659 926.364 862.4 931.19 860.955Z" fill="#12B3A4"/>
<path opacity="0.2" d="M888.974 992.44C890.007 998.617 892.387 1006.02 898.538 1007.21C893.38 1006.22 903.759 974.328 899.549 969.711C890.552 959.862 887.999 986.705 888.974 992.44Z" fill="white"/>
<path opacity="0.3" d="M878.734 711.453C886.531 709.119 890.96 700.905 888.625 693.107C886.291 685.31 878.077 680.881 870.279 683.216C862.482 685.55 858.053 693.764 860.388 701.562C862.722 709.359 870.936 713.788 878.734 711.453Z" fill="#12B3A4"/>
<path opacity="0.3" d="M912.758 670.943C918.555 669.208 921.847 663.102 920.111 657.305C918.376 651.509 912.27 648.217 906.473 649.952C900.677 651.687 897.385 657.793 899.12 663.59C900.856 669.386 906.962 672.678 912.758 670.943Z" fill="#12B3A4"/>
<path opacity="0.3" d="M872.541 646.723C875.554 645.821 877.265 642.647 876.363 639.634C875.461 636.621 872.288 634.91 869.275 635.812C866.262 636.714 864.55 639.888 865.452 642.901C866.355 645.914 869.528 647.625 872.541 646.723Z" fill="#12B3A4"/>
<path opacity="0.9" d="M776.964 858.765L662.863 892.927L672.995 926.77L690.383 921.564L769.433 1185.59C770.937 1190.87 773.473 1195.79 776.895 1200.07C780.317 1204.36 784.556 1207.92 789.366 1210.56C794.176 1213.19 799.461 1214.84 804.915 1215.42C810.369 1215.99 815.882 1215.48 821.136 1213.91C826.39 1212.33 831.279 1209.73 835.519 1206.26C839.76 1202.78 843.267 1198.49 845.838 1193.65C848.409 1188.81 849.992 1183.5 850.496 1178.04C851 1172.58 850.414 1167.07 848.772 1161.84L769.722 897.81L787.097 892.608L776.964 858.765Z" fill="#578A8A"/>
<path d="M734.726 973.469C734.726 973.469 759.944 954.928 769.951 959.747C769.951 959.747 763.548 979.979 752.816 982.458C742.085 984.936 734.726 973.469 734.726 973.469Z" fill="#12B3A4"/>
<path opacity="0.1" d="M734.726 973.469C734.726 973.469 759.944 954.928 769.951 959.747C769.951 959.747 763.548 979.979 752.816 982.458C742.085 984.936 734.726 973.469 734.726 973.469Z" fill="black"/>
<path d="M769.945 959.778L827.319 1151.41C828.27 1154.59 828.587 1157.92 828.249 1161.22C827.912 1164.52 826.928 1167.73 825.353 1170.65C823.779 1173.57 821.644 1176.15 819.072 1178.24C816.499 1180.34 813.539 1181.91 810.36 1182.86C803.94 1184.78 797.02 1184.08 791.121 1180.89C785.223 1177.71 780.829 1172.32 778.907 1165.9L721.534 974.272C721.534 974.272 732.247 967.643 745.241 971.085C758.234 974.527 769.945 959.778 769.945 959.778Z" fill="#12B3A4"/>
<path opacity="0.1" d="M769.646 897.603L690.306 921.357L690.773 922.916L770.113 899.162L769.646 897.603Z" fill="black"/>
<path opacity="0.3" d="M740.112 948.205C742.835 947.389 744.382 944.521 743.567 941.797C742.751 939.074 739.883 937.527 737.159 938.343C734.436 939.158 732.889 942.027 733.705 944.75C734.52 947.473 737.389 949.02 740.112 948.205Z" fill="#12B3A4"/>
<path opacity="0.3" d="M750.476 924.099C752.21 923.58 753.195 921.754 752.676 920.019C752.157 918.285 750.33 917.301 748.596 917.82C746.862 918.339 745.877 920.166 746.396 921.9C746.915 923.634 748.742 924.618 750.476 924.099Z" fill="#12B3A4"/>
<path opacity="0.3" d="M726.633 924.403C728.367 923.884 729.352 922.057 728.833 920.323C728.314 918.589 726.487 917.604 724.753 918.123C723.019 918.642 722.034 920.469 722.553 922.203C723.073 923.937 724.899 924.922 726.633 924.403Z" fill="#12B3A4"/>
<path opacity="0.2" d="M725.279 1015.81C726.312 1021.99 728.693 1029.39 734.844 1030.58C729.679 1029.59 740.067 997.704 735.855 993.08C726.848 983.249 724.307 1010.08 725.279 1015.81Z" fill="white"/>
<path opacity="0.3" d="M722.458 852.011C729.075 850.03 732.833 843.06 730.852 836.444C728.871 829.827 721.901 826.069 715.285 828.05C708.668 830.031 704.91 837.001 706.891 843.617C708.872 850.234 715.842 853.992 722.458 852.011Z" fill="#12B3A4"/>
<path opacity="0.3" d="M679.448 839.158C684.368 837.685 687.162 832.502 685.689 827.582C684.216 822.662 679.034 819.868 674.114 821.341C669.194 822.814 666.399 827.997 667.872 832.917C669.345 837.837 674.528 840.631 679.448 839.158Z" fill="#12B3A4"/>
<path opacity="0.3" d="M696.664 803.235C699.221 802.469 700.674 799.775 699.908 797.217C699.143 794.659 696.448 793.206 693.89 793.972C691.333 794.738 689.88 797.432 690.646 799.99C691.411 802.548 694.106 804.001 696.664 803.235Z" fill="#12B3A4"/>
</g>
<g opacity="0.1" clip-path="url(#clip2)">
<path opacity="0.1" d="M131.488 378.972C163.377 390.449 190.161 397.159 191.312 393.96C192.464 390.76 167.547 378.862 135.659 367.385C103.77 355.908 76.9864 349.198 75.8348 352.398C74.6832 355.597 99.6002 367.495 131.488 378.972Z" fill="#12B3A4"/>
<path opacity="0.1" d="M-41.3706 310.258C-17.1663 318.969 2.89098 324.82 3.4286 323.327C3.96622 321.833 -15.2194 313.56 -39.4237 304.848C-63.628 296.137 -83.6853 290.286 -84.223 291.779C-84.7606 293.273 -65.5749 301.546 -41.3706 310.258Z" fill="#12B3A4"/>
<path opacity="0.1" d="M183.409 -70.076C204.873 -78.6947 231.462 -72.4753 254.271 -62.9648C325.921 -33.0847 379.097 25.8387 421.723 86.1824C437.157 108.025 451.865 130.875 458.1 155.555C470.82 205.795 442.559 258.886 392.683 278.558C375.711 285.247 356.951 288.327 338.141 290.238C304.684 293.666 269.947 293.579 236.445 285.067C212.554 278.982 189.831 268.761 168.002 257.384C107.001 225.598 50.9759 183.709 10.0557 131.83C-7.87655 109.032 -23.2424 83.2606 -24.3786 56.4816C-25.5148 29.7025 -8.76188 2.3153 19.8413 -2.99835C31.6708 -5.19654 44.2871 -3.57252 56.5948 -1.87723C74.719 0.616543 93.0922 3.25654 110.903 1.46971C129.292 -0.372587 153.088 -8.17076 155.944 -25.8691C159.02 -44.8588 161.967 -61.4492 183.409 -70.076Z" fill="#12B3A4"/>
<path opacity="0.9" d="M246.501 177.378L284.746 71.1167L299.216 76.3245L310.633 44.6029L206.954 7.28726L195.537 39.0088L210.006 44.2166L171.761 150.478C149.047 150.875 126.991 158.17 108.519 171.393C90.0473 184.617 76.0327 203.144 68.3349 224.517C47.3937 282.701 77.5888 346.843 135.773 367.785C193.957 388.726 258.097 358.536 279.038 300.352C286.727 278.974 287.732 255.762 281.921 233.798C276.11 211.834 263.757 192.157 246.501 177.378Z" fill="#498080"/>
<path opacity="0.9" d="M246.501 177.378L284.746 71.1167L299.216 76.3245L310.633 44.6029L206.954 7.28726L195.537 39.0088L210.006 44.2166L171.761 150.478C149.047 150.875 126.991 158.17 108.519 171.393C90.0473 184.617 76.0327 203.144 68.3349 224.517C47.3937 282.701 77.5888 346.843 135.773 367.785C193.957 388.726 258.097 358.536 279.038 300.352C286.727 278.974 287.732 255.762 281.921 233.798C276.11 211.834 263.757 192.157 246.501 177.378Z" fill="#498080"/>
<path opacity="0.1" d="M284.864 70.7883L210.102 43.8802L209.587 45.3104L284.35 72.2186L284.864 70.7883Z" fill="black"/>
<path d="M115.76 238.393C115.76 238.393 179.604 260.114 217.04 255.654C254.476 251.193 267.5 271.892 262.33 280.912C257.16 289.932 241.382 305.356 204.305 294.601C167.228 283.847 115.76 238.393 115.76 238.393Z" fill="#12B3A4"/>
<path opacity="0.1" d="M115.76 238.393C115.76 238.393 179.604 260.114 217.04 255.654C254.476 251.193 267.5 271.892 262.33 280.912C257.16 289.932 241.382 305.356 204.305 294.601C167.228 283.847 115.76 238.393 115.76 238.393Z" fill="black"/>
<path d="M92.2566 218.43C92.2566 218.43 51.6377 310.014 139.93 343.709C228.223 377.405 262.34 280.903 262.34 280.903C262.34 280.903 216.664 304.764 149.652 247.379C149.644 247.401 113.304 222.165 92.2566 218.43Z" fill="#12B3A4"/>
<path opacity="0.1" d="M261.928 281.138C252.357 302.159 216.44 365.815 142.209 337.483C69.437 309.726 84.1937 242.684 91.6527 219.916C86.8939 231.863 58.2684 312.533 139.949 343.71C228.274 377.385 262.358 280.903 262.358 280.903C262.358 280.903 262.197 281.002 261.928 281.138Z" fill="black"/>
<path opacity="0.3" d="M185.371 219.149C191.743 221.442 198.767 218.136 201.06 211.765C203.353 205.393 200.047 198.369 193.676 196.076C187.304 193.783 180.28 197.089 177.987 203.46C175.694 209.832 179 216.856 185.371 219.149Z" fill="#12B3A4"/>
<path opacity="0.3" d="M210.154 170.972C214.097 172.391 218.444 170.345 219.864 166.402C221.283 162.458 219.237 158.111 215.293 156.692C211.35 155.273 207.003 157.319 205.583 161.262C204.164 165.206 206.21 169.553 210.154 170.972Z" fill="#12B3A4"/>
<path opacity="0.3" d="M209.053 124.027C212.996 125.447 217.343 123.4 218.763 119.457C220.182 115.514 218.136 111.166 214.192 109.747C210.249 108.328 205.902 110.374 204.482 114.317C203.063 118.261 205.109 122.608 209.053 124.027Z" fill="#12B3A4"/>
<path opacity="0.2" d="M115.799 191.129C113.436 195.773 111.367 201.905 114.896 205.74C111.936 202.525 134.646 186.321 134.112 181.15C132.962 170.113 117.982 186.811 115.799 191.129Z" fill="white"/>
<path opacity="0.3" d="M247.87 -1.93619C254.242 0.357004 261.266 -2.94911 263.559 -9.3206C265.852 -15.6921 262.546 -22.7162 256.175 -25.0094C249.803 -27.3026 242.779 -23.9965 240.486 -17.625C238.193 -11.2535 241.499 -4.22939 247.87 -1.93619Z" fill="#12B3A4"/>
<path opacity="0.9" d="M106.946 46.3112L13.7126 12.7552L3.75979 40.4085L17.9677 45.5222L-59.6802 261.262C-61.2814 265.534 -62.018 270.082 -61.8475 274.641C-61.6769 279.2 -60.6025 283.68 -58.6866 287.821C-56.7707 291.961 -54.0515 295.68 -50.6868 298.762C-47.3221 301.843 -43.3789 304.225 -39.0861 305.77C-34.7933 307.315 -30.2363 307.992 -25.6797 307.762C-21.1231 307.532 -16.6577 306.399 -12.5425 304.429C-8.42729 302.459 -4.74435 299.691 -1.70743 296.286C1.32949 292.882 3.65991 288.907 5.14858 284.595L82.7965 68.855L96.9932 73.9646L106.946 46.3112Z" fill="#578A8A"/>
<path d="M21.9739 102.175C21.9739 102.175 48.0136 102.237 52.3266 110.409C52.3266 110.409 38.0393 120.781 29.6338 117.133C21.2284 113.485 21.9739 102.175 21.9739 102.175Z" fill="#12B3A4"/>
<path opacity="0.1" d="M21.9739 102.175C21.9739 102.175 48.0136 102.237 52.3266 110.409C52.3266 110.409 38.0393 120.781 29.6338 117.133C21.2284 113.485 21.9739 102.175 21.9739 102.175Z" fill="black"/>
<path d="M52.3075 110.427L-4.04861 267.009C-4.98344 269.606 -6.42072 271.994 -8.27836 274.036C-10.136 276.078 -12.3776 277.734 -14.8753 278.909C-17.3729 280.085 -20.0777 280.757 -22.8351 280.887C-25.5925 281.018 -28.3485 280.604 -30.9459 279.669C-36.1915 277.781 -40.4723 273.886 -42.8465 268.842C-45.2207 263.798 -45.4939 258.017 -43.6059 252.772L12.7502 96.1897C12.7502 96.1897 23.1956 97.0513 30.1877 105.779C37.1798 114.506 52.3075 110.427 52.3075 110.427Z" fill="#12B3A4"/>
<path opacity="0.1" d="M82.8473 68.6785L18.0186 45.3456L17.5599 46.6201L82.3886 69.9529L82.8473 68.6785Z" fill="black"/>
<path opacity="0.3" d="M38.0686 87.9337C40.2938 88.7346 42.747 87.58 43.5479 85.3547C44.3488 83.1294 43.1941 80.6763 40.9689 79.8754C38.7436 79.0745 36.2904 80.2291 35.4895 82.4544C34.6886 84.6796 35.8433 87.1328 38.0686 87.9337Z" fill="#12B3A4"/>
<path opacity="0.3" d="M56.9209 76.9294C58.3379 77.4393 59.8999 76.7041 60.4099 75.2872C60.9198 73.8703 60.1846 72.3082 58.7677 71.7983C57.3508 71.2883 55.7887 72.0235 55.2788 73.4404C54.7688 74.8574 55.504 76.4194 56.9209 76.9294Z" fill="#12B3A4"/>
<path opacity="0.3" d="M40.8179 65.3442C42.2348 65.8541 43.7969 65.1189 44.3068 63.702C44.8168 62.2851 44.0816 60.723 42.6647 60.2131C41.2478 59.7031 39.6857 60.4383 39.1757 61.8552C38.6658 63.2722 39.401 64.8342 40.8179 65.3442Z" fill="#12B3A4"/>
<path opacity="0.2" d="M-5.27985 125.833C-7.64263 130.476 -9.71148 136.609 -6.18229 140.444C-9.14802 137.227 13.5656 121.03 13.0337 115.854C11.868 104.824 -3.09891 121.52 -5.27985 125.833Z" fill="white"/>
<path opacity="0.3" d="M73.8164 14.8439C79.2227 16.7898 85.1829 13.9845 87.1288 8.57806C89.0746 3.17166 86.2693 -2.7885 80.8629 -4.73434C75.4565 -6.68018 69.4963 -3.87485 67.5505 1.53155C65.6046 6.93795 68.41 12.8981 73.8164 14.8439Z" fill="#12B3A4"/>
</g>
<path d="M41.8516 844.703L42.7109 844.969C42.6172 845.146 42.3828 845.646 42.0078 846.469C41.6432 847.281 41.2422 848.12 40.8047 848.984C40.3672 849.849 39.9401 850.609 39.5234 851.266C39.5651 851.776 39.5911 852.568 39.6016 853.641C39.612 854.714 39.6328 855.484 39.6641 855.953C39.5703 855.974 39.3307 855.984 38.9453 855.984C38.5807 855.984 38.362 855.974 38.2891 855.953C38.3203 855.505 38.3411 854.74 38.3516 853.656C38.3724 852.562 38.4036 851.766 38.4453 851.266C37.9245 850.401 37.3411 849.193 36.6953 847.641C36.0599 846.089 35.6536 845.13 35.4766 844.766L36.5234 844.688L38.9922 850C39.1797 849.667 39.6068 848.839 40.2734 847.516C40.9505 846.193 41.4766 845.255 41.8516 844.703ZM44.4453 856.094L43.0234 856C43.1276 854.854 43.1901 852.938 43.2109 850.25C43.2318 847.562 43.2995 845.688 43.4141 844.625C43.7682 844.656 44.7057 844.682 46.2266 844.703C47.7578 844.724 48.7578 844.771 49.2266 844.844L49.3984 845.547C48.9297 845.63 47.9922 845.729 46.5859 845.844C45.1797 845.958 44.4401 846.021 44.3672 846.031C44.3776 846.271 44.3984 846.76 44.4297 847.5C44.4714 848.24 44.4974 848.849 44.5078 849.328C44.862 849.37 45.5078 849.432 46.4453 849.516C47.3828 849.589 47.9766 849.635 48.2266 849.656L48.3828 850.375C46.1849 850.573 44.8984 850.677 44.5234 850.688V850.953C44.5234 851.349 44.5078 852.172 44.4766 853.422C44.4557 854.661 44.4453 855.474 44.4453 855.859V856.094ZM49.9766 855.109L50.1953 854.234C51.1016 854.724 51.9922 854.969 52.8672 854.969C53.4922 854.969 54.0234 854.844 54.4609 854.594C54.9089 854.333 55.1328 853.917 55.1328 853.344C55.1328 852.833 54.9453 852.37 54.5703 851.953C54.1953 851.526 53.7422 851.151 53.2109 850.828C52.6797 850.505 52.1484 850.177 51.6172 849.844C51.0859 849.5 50.6328 849.083 50.2578 848.594C49.8828 848.094 49.6953 847.542 49.6953 846.938C49.6953 846.198 49.9609 845.526 50.4922 844.922C51.0234 844.307 51.6641 844 52.4141 844C52.987 844 53.6224 844.115 54.3203 844.344C55.0286 844.573 55.6224 844.802 56.1016 845.031L55.9141 845.656C54.7266 845.25 53.7266 845.047 52.9141 845.047C52.4141 845.047 51.987 845.208 51.6328 845.531C51.2786 845.854 51.1016 846.271 51.1016 846.781C51.1016 847.167 51.2005 847.516 51.3984 847.828C51.5964 848.141 51.8516 848.411 52.1641 848.641C52.487 848.87 52.8411 849.094 53.2266 849.312C53.6224 849.531 54.013 849.766 54.3984 850.016C54.7839 850.266 55.1328 850.536 55.4453 850.828C55.7682 851.12 56.0286 851.49 56.2266 851.938C56.4245 852.375 56.5234 852.87 56.5234 853.422C56.5234 854.203 56.2734 854.844 55.7734 855.344C55.2734 855.833 54.6224 856.078 53.8203 856.078C53.1328 856.078 52.3984 855.984 51.6172 855.797C50.8464 855.599 50.2995 855.37 49.9766 855.109ZM62.5859 848.25L62.5078 848.922C62.0703 848.859 61.6953 848.828 61.3828 848.828C60.6641 848.828 60.0703 849.047 59.6016 849.484C59.1328 849.911 58.8099 850.422 58.6328 851.016C58.4661 851.599 58.3828 852.25 58.3828 852.969C58.3828 853.302 58.4036 853.599 58.4453 853.859C58.487 854.12 58.5599 854.375 58.6641 854.625C58.7786 854.875 58.9505 855.073 59.1797 855.219C59.4193 855.354 59.7109 855.422 60.0547 855.422C60.513 855.422 61.0964 855.333 61.8047 855.156C62.0234 855.073 62.1953 855.031 62.3203 855.031C62.5703 855.031 62.7214 855.323 62.7734 855.906C61.8568 856.198 61.0078 856.344 60.2266 856.344C59.0911 856.344 58.3203 856.068 57.9141 855.516C57.5182 854.953 57.3203 854.047 57.3203 852.797C57.3203 852.068 57.3672 851.432 57.4609 850.891C57.5651 850.339 57.7422 849.828 57.9922 849.359C58.2422 848.88 58.6016 848.516 59.0703 848.266C59.5495 848.016 60.1328 847.891 60.8203 847.891C61.5911 847.891 62.1797 848.01 62.5859 848.25ZM63.9141 847.969L64.6328 848.125C64.7161 848.979 64.7891 850.323 64.8516 852.156C64.9141 853.979 64.9557 855.109 64.9766 855.547C64.8828 855.87 64.7005 856.031 64.4297 856.031C64.2422 856.031 64.0599 855.958 63.8828 855.812C63.7161 855.656 63.612 855.469 63.5703 855.25C63.5911 854.823 63.6328 853.714 63.6953 851.922C63.7578 850.12 63.8307 848.802 63.9141 847.969ZM64.1328 845.172C64.4141 845.172 64.6484 845.297 64.8359 845.547C65.0234 845.786 65.1172 846.062 65.1172 846.375C65.1172 846.604 65.0599 846.792 64.9453 846.938C64.8411 847.073 64.6953 847.141 64.5078 847.141C64.2161 847.141 63.987 847.021 63.8203 846.781C63.6536 846.542 63.5703 846.26 63.5703 845.938C63.5703 845.708 63.6172 845.526 63.7109 845.391C63.8151 845.245 63.9557 845.172 64.1328 845.172ZM72.6953 854.484L72.8516 855.172C72.3932 855.339 71.7109 855.526 70.8047 855.734C69.9089 855.932 69.2422 856.031 68.8047 856.031C68.3568 856.031 67.9661 855.885 67.6328 855.594C67.2995 855.292 67.0495 854.911 66.8828 854.453C66.7161 853.984 66.5911 853.526 66.5078 853.078C66.4349 852.62 66.3984 852.172 66.3984 851.734C66.3984 849.13 67.5755 847.828 69.9297 847.828C70.4922 847.828 70.987 848.01 71.4141 848.375C71.8411 848.729 72.0547 849.193 72.0547 849.766C72.0547 850.078 71.9661 850.354 71.7891 850.594C71.6224 850.833 71.4141 851.026 71.1641 851.172C70.9245 851.307 70.612 851.432 70.2266 851.547C69.8516 851.661 69.5182 851.745 69.2266 851.797C68.9349 851.849 68.5859 851.906 68.1797 851.969C67.7734 852.031 67.4922 852.078 67.3359 852.109C67.3464 852.411 67.362 852.677 67.3828 852.906C67.4141 853.135 67.4661 853.385 67.5391 853.656C67.6224 853.917 67.7266 854.135 67.8516 854.312C67.987 854.479 68.1693 854.62 68.3984 854.734C68.6276 854.849 68.8984 854.906 69.2109 854.906C69.5859 854.906 70.0443 854.875 70.5859 854.812C71.1276 854.74 71.6068 854.667 72.0234 854.594C72.4505 854.521 72.6745 854.484 72.6953 854.484ZM67.3984 851.141C68.8151 850.734 69.9766 850.307 70.8828 849.859C70.8099 849.516 70.7109 849.266 70.5859 849.109C70.4609 848.953 70.2734 848.875 70.0234 848.875C69.388 848.875 68.8099 849.094 68.2891 849.531C67.7786 849.969 67.4818 850.505 67.3984 851.141ZM74.5391 849.75L74.6016 855.938C74.4453 856.021 74.2578 856.062 74.0391 856.062C73.8724 856.062 73.6849 856.036 73.4766 855.984C73.5078 855.328 73.5286 854.036 73.5391 852.109C73.5495 850.182 73.5911 848.755 73.6641 847.828L74.3672 847.984L74.4141 848.859C74.9661 848.276 75.6016 847.984 76.3203 847.984C76.6849 847.984 76.9766 848.01 77.1953 848.062C77.4141 848.115 77.6224 848.245 77.8203 848.453C78.0286 848.651 78.1849 848.917 78.2891 849.25C78.3932 849.583 78.487 850.062 78.5703 850.688C78.6536 851.302 78.7109 852.026 78.7422 852.859C78.7839 853.682 78.8099 854.724 78.8203 855.984C78.7578 856.005 78.638 856.016 78.4609 856.016C78.0859 856.016 77.7943 855.969 77.5859 855.875C77.5443 855.708 77.5234 855.432 77.5234 855.047C77.5234 854.849 77.5286 854.479 77.5391 853.938C77.5599 853.385 77.5703 852.958 77.5703 852.656C77.5703 852.156 77.5495 851.719 77.5078 851.344C77.4766 850.969 77.4089 850.599 77.3047 850.234C77.2109 849.87 77.0599 849.589 76.8516 849.391C76.6536 849.193 76.4036 849.094 76.1016 849.094C75.7578 849.094 75.487 849.12 75.2891 849.172C75.1016 849.224 74.9661 849.286 74.8828 849.359C74.8099 849.432 74.6953 849.562 74.5391 849.75ZM85.3516 848.25L85.2734 848.922C84.8359 848.859 84.4609 848.828 84.1484 848.828C83.4297 848.828 82.8359 849.047 82.3672 849.484C81.8984 849.911 81.5755 850.422 81.3984 851.016C81.2318 851.599 81.1484 852.25 81.1484 852.969C81.1484 853.302 81.1693 853.599 81.2109 853.859C81.2526 854.12 81.3255 854.375 81.4297 854.625C81.5443 854.875 81.7161 855.073 81.9453 855.219C82.1849 855.354 82.4766 855.422 82.8203 855.422C83.2786 855.422 83.862 855.333 84.5703 855.156C84.7891 855.073 84.9609 855.031 85.0859 855.031C85.3359 855.031 85.487 855.323 85.5391 855.906C84.6224 856.198 83.7734 856.344 82.9922 856.344C81.8568 856.344 81.0859 856.068 80.6797 855.516C80.2839 854.953 80.0859 854.047 80.0859 852.797C80.0859 852.068 80.1328 851.432 80.2266 850.891C80.3307 850.339 80.5078 849.828 80.7578 849.359C81.0078 848.88 81.3672 848.516 81.8359 848.266C82.3151 848.016 82.8984 847.891 83.5859 847.891C84.3568 847.891 84.9453 848.01 85.3516 848.25ZM92.0703 854.484L92.2266 855.172C91.7682 855.339 91.0859 855.526 90.1797 855.734C89.2839 855.932 88.6172 856.031 88.1797 856.031C87.7318 856.031 87.3411 855.885 87.0078 855.594C86.6745 855.292 86.4245 854.911 86.2578 854.453C86.0911 853.984 85.9661 853.526 85.8828 853.078C85.8099 852.62 85.7734 852.172 85.7734 851.734C85.7734 849.13 86.9505 847.828 89.3047 847.828C89.8672 847.828 90.362 848.01 90.7891 848.375C91.2161 848.729 91.4297 849.193 91.4297 849.766C91.4297 850.078 91.3411 850.354 91.1641 850.594C90.9974 850.833 90.7891 851.026 90.5391 851.172C90.2995 851.307 89.987 851.432 89.6016 851.547C89.2266 851.661 88.8932 851.745 88.6016 851.797C88.3099 851.849 87.9609 851.906 87.5547 851.969C87.1484 852.031 86.8672 852.078 86.7109 852.109C86.7214 852.411 86.737 852.677 86.7578 852.906C86.7891 853.135 86.8411 853.385 86.9141 853.656C86.9974 853.917 87.1016 854.135 87.2266 854.312C87.362 854.479 87.5443 854.62 87.7734 854.734C88.0026 854.849 88.2734 854.906 88.5859 854.906C88.9609 854.906 89.4193 854.875 89.9609 854.812C90.5026 854.74 90.9818 854.667 91.3984 854.594C91.8255 854.521 92.0495 854.484 92.0703 854.484ZM86.7734 851.141C88.1901 850.734 89.3516 850.307 90.2578 849.859C90.1849 849.516 90.0859 849.266 89.9609 849.109C89.8359 848.953 89.6484 848.875 89.3984 848.875C88.763 848.875 88.1849 849.094 87.6641 849.531C87.1536 849.969 86.8568 850.505 86.7734 851.141Z" fill="#DCFEF9"/>
</g>
<defs>
<clipPath id="clip0">
<rect width="1440" height="1024" fill="white"/>
</clipPath>
<clipPath id="clip1">
<rect width="702.152" height="559.805" fill="white" transform="translate(530 737.39) rotate(-16.6676)"/>
</clipPath>
<clipPath id="clip2">
<rect width="584.143" height="465.72" fill="white" transform="translate(1.71533 -157) rotate(19.7945)"/>
</clipPath>
</defs>
</svg>
